M48
; DRILL file {KiCad (5.1.9)-1} date 01/16/22 16:07:16
; FORMAT={3:3/ absolute / metric / suppress leading zeros}
; #@! TF.CreationDate,2022-01-16T16:07:16+01:00
; #@! TF.GenerationSoftware,Kicad,Pcbnew,(5.1.9)-1
FMAT,2
METRIC,TZ
T1C0.400
T2C0.600
T3C0.800
T4C1.000
T5C1.200
T6C1.300
T7C1.500
T8C4.300
T9C0.600
T10C1.152
%
G90
G05
T1
X75000Y-95000
X75000Y-100000
X75000Y-105000
X75000Y-110000
X75000Y-115000
X80000Y-90000
X80000Y-95000
X80000Y-100000
X80000Y-105000
X80000Y-110000
X85000Y-85000
X85000Y-90000
X85000Y-95000
X85000Y-100000
X85000Y-105000
X85000Y-110000
X85000Y-115000
X85000Y-125000
X90000Y-55000
X90000Y-65000
X90000Y-85000
X90000Y-110000
X90000Y-115000
X90000Y-125000
X95000Y-60000
X95000Y-65000
X95000Y-85000
X95000Y-115000
X95000Y-120000
X95000Y-125000
X100000Y-95000
X100000Y-100000
X100000Y-110000
X100000Y-115000
X100000Y-120000
X100000Y-125000
X105000Y-100000
X105000Y-110000
X105000Y-120000
X110000Y-100000
X115000Y-45000
X117500Y-45000
X120000Y-42500
X142500Y-45000
X142500Y-50000
X145000Y-92500
X150000Y-97500
X150000Y-102500
X155000Y-97500
X155000Y-102500
X155000Y-107500
X155000Y-112500
X160000Y-50000
X160000Y-60000
X160000Y-80000
X160000Y-85000
X160000Y-97500
X160000Y-102500
X160000Y-107500
X165000Y-45000
X165000Y-50000
X165000Y-80000
X165000Y-85000
X165000Y-102500
X165000Y-107500
X165000Y-112500
T2
X76775Y-120000
X77275Y-40000
X77720Y-117720
X77720Y-122280
X78220Y-37720
X78220Y-42280
X80000Y-116775
X80000Y-123225
X80500Y-36775
X80500Y-43225
X82280Y-117720
X82280Y-122280
X82780Y-37720
X82780Y-42280
X83225Y-120000
X83725Y-40000
X114775Y-120000
X115720Y-117720
X115720Y-122280
X118000Y-116775
X118000Y-123225
X120280Y-117720
X120280Y-122280
X121225Y-120000
X138775Y-120000
X139720Y-117720
X139720Y-122280
X142000Y-116775
X142000Y-123225
X144280Y-117720
X144280Y-122280
X145225Y-120000
X156775Y-40000
X156775Y-120000
X157720Y-37720
X157720Y-42280
X157720Y-117720
X157720Y-122280
X160000Y-36775
X160000Y-43225
X160000Y-116775
X160000Y-123225
X162280Y-37720
X162280Y-42280
X162280Y-117720
X162280Y-122280
X163225Y-40000
X163225Y-120000
T3
X87000Y-39000
X87490Y-56440
X90750Y-69500
X90750Y-71250
X92500Y-80000
X94250Y-69500
X94250Y-71250
X94500Y-77500
X95500Y-39000
X97400Y-90000
X101000Y-53500
X106500Y-66500
X111500Y-56425
X111725Y-70425
X112500Y-51740
X113000Y-90000
X114000Y-48000
X115000Y-95000
X116500Y-79500
X117000Y-81000
X117000Y-94500
X118000Y-48000
X118000Y-65000
X118000Y-68500
X119000Y-81000
X119600Y-63670
X119600Y-68390
X121000Y-63000
X121440Y-65600
X121500Y-54370
X122000Y-41000
X122260Y-64010
X122500Y-50000
X123500Y-75500
X124025Y-73375
X124425Y-61225
X125230Y-46930
X125275Y-62300
X125500Y-113540
X125825Y-63500
X126000Y-50000
X126000Y-88000
X126000Y-89500
X126480Y-40800
X126500Y-64950
X127160Y-65953
X128264Y-67264
X128425Y-48500
X129000Y-89380
X129000Y-97000
X129480Y-47794
X129930Y-80000
X130000Y-41000
X131400Y-45600
X131540Y-89380
X131540Y-97000
X132270Y-69680
X132500Y-50430
X132500Y-51875
X133275Y-40875
X134750Y-52675
X134750Y-54600
X135000Y-70000
X135470Y-38030
X135500Y-39600
X136400Y-60675
X136690Y-51760
X138500Y-77000
X138500Y-79000
X138930Y-51000
X139875Y-74050
X140250Y-71500
X140990Y-39600
X141875Y-52375
X142000Y-85500
X142020Y-81530
X144690Y-61090
X146680Y-64550
X148310Y-84010
X148330Y-64550
X149830Y-80550
X149980Y-64550
X152620Y-77750
X153500Y-89000
X153500Y-93500
X155430Y-95580
X155450Y-86930
X156330Y-56460
X158950Y-63300
X159125Y-71500
X159525Y-74050
X161500Y-69000
X161500Y-76500
T4
X74975Y-87950
X74975Y-90490
X75000Y-67000
X75000Y-69540
X87420Y-35000
X89960Y-35000
X90425Y-104475
X92500Y-35000
X98025Y-104475
X137000Y-35000
X139540Y-35000
X162500Y-55840
X162500Y-58380
X162500Y-60920
X162500Y-63460
X162500Y-66000
X165000Y-71500
X165000Y-74040
X165040Y-55840
X165040Y-58380
X165040Y-60920
X165040Y-63460
X165040Y-66000
T5
X75000Y-77000
X75000Y-80500
X128500Y-125000
X132000Y-125000
X165000Y-89500
X165000Y-93000
T6
X75500Y-49000
X75500Y-54000
X75500Y-59000
T7
X147960Y-33960
X147960Y-39040
X150500Y-36500
X153040Y-33960
X153040Y-39040
T8
X80000Y-120000
X80500Y-40000
X118000Y-120000
X142000Y-120000
X160000Y-40000
X160000Y-120000
T9
X123610Y-37950
X129390Y-37950
T10
X86500Y-45500
X88500Y-120000
X160000Y-112000
T2
G00X122180Y-33860
M15
G01X122180Y-34660
M16
G05
G00X122180Y-37880
M15
G01X122180Y-38980
M16
G05
G00X130820Y-33860
M15
G01X130820Y-34660
M16
G05
G00X130820Y-37880
M15
G01X130820Y-38980
M16
G05
T0
M30
