G04 #@! TF.GenerationSoftware,KiCad,Pcbnew,(5.1.9)-1*
G04 #@! TF.CreationDate,2022-01-19T09:07:22+01:00*
G04 #@! TF.ProjectId,STM32F103C8T6,53544d33-3246-4313-9033-433854362e6b,rev?*
G04 #@! TF.SameCoordinates,Original*
G04 #@! TF.FileFunction,Soldermask,Top*
G04 #@! TF.FilePolarity,Negative*
%FSLAX46Y46*%
G04 Gerber Fmt 4.6, Leading zero omitted, Abs format (unit mm)*
G04 Created by KiCad (PCBNEW (5.1.9)-1) date 2022-01-19 09:07:22*
%MOMM*%
%LPD*%
G01*
G04 APERTURE LIST*
%ADD10R,0.600000X1.160000*%
%ADD11C,0.600000*%
%ADD12R,0.300000X1.160000*%
%ADD13O,0.900000X1.700000*%
%ADD14O,0.900000X2.000000*%
%ADD15R,1.000000X1.000000*%
%ADD16R,1.800000X3.500000*%
%ADD17R,3.500000X1.800000*%
%ADD18R,0.800000X1.900000*%
%ADD19R,2.000000X7.875000*%
%ADD20R,1.900000X1.300000*%
%ADD21C,1.152000*%
%ADD22C,0.900000*%
%ADD23C,8.600000*%
%ADD24R,1.200000X0.900000*%
%ADD25R,1.700000X1.700000*%
%ADD26O,1.700000X1.700000*%
%ADD27R,2.400000X2.400000*%
%ADD28C,2.400000*%
%ADD29R,2.600000X2.600000*%
%ADD30C,2.600000*%
%ADD31R,3.800000X2.000000*%
%ADD32R,1.500000X2.000000*%
%ADD33R,0.650000X1.060000*%
%ADD34R,1.000000X0.900000*%
%ADD35R,1.600000X1.600000*%
%ADD36O,1.600000X1.600000*%
%ADD37R,2.000000X2.000000*%
%ADD38C,2.000000*%
%ADD39C,2.250000*%
G04 APERTURE END LIST*
G36*
G01*
X129760000Y-42340000D02*
X129760000Y-42660000D01*
G75*
G02*
X129600000Y-42820000I-160000J0D01*
G01*
X129205000Y-42820000D01*
G75*
G02*
X129045000Y-42660000I0J160000D01*
G01*
X129045000Y-42340000D01*
G75*
G02*
X129205000Y-42180000I160000J0D01*
G01*
X129600000Y-42180000D01*
G75*
G02*
X129760000Y-42340000I0J-160000D01*
G01*
G37*
G36*
G01*
X130955000Y-42340000D02*
X130955000Y-42660000D01*
G75*
G02*
X130795000Y-42820000I-160000J0D01*
G01*
X130400000Y-42820000D01*
G75*
G02*
X130240000Y-42660000I0J160000D01*
G01*
X130240000Y-42340000D01*
G75*
G02*
X130400000Y-42180000I160000J0D01*
G01*
X130795000Y-42180000D01*
G75*
G02*
X130955000Y-42340000I0J-160000D01*
G01*
G37*
G36*
G01*
X123240000Y-42660000D02*
X123240000Y-42340000D01*
G75*
G02*
X123400000Y-42180000I160000J0D01*
G01*
X123795000Y-42180000D01*
G75*
G02*
X123955000Y-42340000I0J-160000D01*
G01*
X123955000Y-42660000D01*
G75*
G02*
X123795000Y-42820000I-160000J0D01*
G01*
X123400000Y-42820000D01*
G75*
G02*
X123240000Y-42660000I0J160000D01*
G01*
G37*
G36*
G01*
X122045000Y-42660000D02*
X122045000Y-42340000D01*
G75*
G02*
X122205000Y-42180000I160000J0D01*
G01*
X122600000Y-42180000D01*
G75*
G02*
X122760000Y-42340000I0J-160000D01*
G01*
X122760000Y-42660000D01*
G75*
G02*
X122600000Y-42820000I-160000J0D01*
G01*
X122205000Y-42820000D01*
G75*
G02*
X122045000Y-42660000I0J160000D01*
G01*
G37*
D10*
X123300000Y-39010000D03*
X124100000Y-39010000D03*
X123300000Y-39010000D03*
X124100000Y-39010000D03*
X129700000Y-39010000D03*
X129700000Y-39010000D03*
X128900000Y-39010000D03*
X128900000Y-39010000D03*
D11*
X129390000Y-37950000D03*
X123610000Y-37950000D03*
D12*
X124750000Y-39010000D03*
X125750000Y-39010000D03*
X125250000Y-39010000D03*
X127750000Y-39010000D03*
X128250000Y-39010000D03*
X126250000Y-39010000D03*
X126750000Y-39010000D03*
X127250000Y-39010000D03*
D13*
X122180000Y-34260000D03*
X130820000Y-34260000D03*
D14*
X122180000Y-38430000D03*
X130820000Y-38430000D03*
D15*
X123500000Y-106400000D03*
X123500000Y-103900000D03*
D16*
X136500000Y-112500000D03*
X136500000Y-107500000D03*
D17*
X127500000Y-118000000D03*
X132500000Y-118000000D03*
D18*
X124110000Y-50950000D03*
X125060000Y-53950000D03*
X123160000Y-53950000D03*
X83400000Y-78000000D03*
X82450000Y-75000000D03*
X84350000Y-75000000D03*
D19*
X108500000Y-85937500D03*
X108500000Y-74062500D03*
D20*
X110100000Y-58250000D03*
X110100000Y-63750000D03*
X106900000Y-63750000D03*
X106900000Y-58250000D03*
G36*
G01*
X119660000Y-46630000D02*
X119660000Y-46950000D01*
G75*
G02*
X119500000Y-47110000I-160000J0D01*
G01*
X119105000Y-47110000D01*
G75*
G02*
X118945000Y-46950000I0J160000D01*
G01*
X118945000Y-46630000D01*
G75*
G02*
X119105000Y-46470000I160000J0D01*
G01*
X119500000Y-46470000D01*
G75*
G02*
X119660000Y-46630000I0J-160000D01*
G01*
G37*
G36*
G01*
X120855000Y-46630000D02*
X120855000Y-46950000D01*
G75*
G02*
X120695000Y-47110000I-160000J0D01*
G01*
X120300000Y-47110000D01*
G75*
G02*
X120140000Y-46950000I0J160000D01*
G01*
X120140000Y-46630000D01*
G75*
G02*
X120300000Y-46470000I160000J0D01*
G01*
X120695000Y-46470000D01*
G75*
G02*
X120855000Y-46630000I0J-160000D01*
G01*
G37*
G36*
G01*
X127300000Y-50490000D02*
X127620000Y-50490000D01*
G75*
G02*
X127780000Y-50650000I0J-160000D01*
G01*
X127780000Y-51045000D01*
G75*
G02*
X127620000Y-51205000I-160000J0D01*
G01*
X127300000Y-51205000D01*
G75*
G02*
X127140000Y-51045000I0J160000D01*
G01*
X127140000Y-50650000D01*
G75*
G02*
X127300000Y-50490000I160000J0D01*
G01*
G37*
G36*
G01*
X127300000Y-49295000D02*
X127620000Y-49295000D01*
G75*
G02*
X127780000Y-49455000I0J-160000D01*
G01*
X127780000Y-49850000D01*
G75*
G02*
X127620000Y-50010000I-160000J0D01*
G01*
X127300000Y-50010000D01*
G75*
G02*
X127140000Y-49850000I0J160000D01*
G01*
X127140000Y-49455000D01*
G75*
G02*
X127300000Y-49295000I160000J0D01*
G01*
G37*
G36*
G01*
X123187500Y-46955000D02*
X123187500Y-46645000D01*
G75*
G02*
X123342500Y-46490000I155000J0D01*
G01*
X123767500Y-46490000D01*
G75*
G02*
X123922500Y-46645000I0J-155000D01*
G01*
X123922500Y-46955000D01*
G75*
G02*
X123767500Y-47110000I-155000J0D01*
G01*
X123342500Y-47110000D01*
G75*
G02*
X123187500Y-46955000I0J155000D01*
G01*
G37*
G36*
G01*
X122052500Y-46955000D02*
X122052500Y-46645000D01*
G75*
G02*
X122207500Y-46490000I155000J0D01*
G01*
X122632500Y-46490000D01*
G75*
G02*
X122787500Y-46645000I0J-155000D01*
G01*
X122787500Y-46955000D01*
G75*
G02*
X122632500Y-47110000I-155000J0D01*
G01*
X122207500Y-47110000D01*
G75*
G02*
X122052500Y-46955000I0J155000D01*
G01*
G37*
G36*
G01*
X129980000Y-51005000D02*
X129980000Y-50695000D01*
G75*
G02*
X130135000Y-50540000I155000J0D01*
G01*
X130560000Y-50540000D01*
G75*
G02*
X130715000Y-50695000I0J-155000D01*
G01*
X130715000Y-51005000D01*
G75*
G02*
X130560000Y-51160000I-155000J0D01*
G01*
X130135000Y-51160000D01*
G75*
G02*
X129980000Y-51005000I0J155000D01*
G01*
G37*
G36*
G01*
X128845000Y-51005000D02*
X128845000Y-50695000D01*
G75*
G02*
X129000000Y-50540000I155000J0D01*
G01*
X129425000Y-50540000D01*
G75*
G02*
X129580000Y-50695000I0J-155000D01*
G01*
X129580000Y-51005000D01*
G75*
G02*
X129425000Y-51160000I-155000J0D01*
G01*
X129000000Y-51160000D01*
G75*
G02*
X128845000Y-51005000I0J155000D01*
G01*
G37*
G36*
G01*
X124625001Y-86100000D02*
X123374999Y-86100000D01*
G75*
G02*
X123125000Y-85850001I0J249999D01*
G01*
X123125000Y-85049999D01*
G75*
G02*
X123374999Y-84800000I249999J0D01*
G01*
X124625001Y-84800000D01*
G75*
G02*
X124875000Y-85049999I0J-249999D01*
G01*
X124875000Y-85850001D01*
G75*
G02*
X124625001Y-86100000I-249999J0D01*
G01*
G37*
G36*
G01*
X124625001Y-89200000D02*
X123374999Y-89200000D01*
G75*
G02*
X123125000Y-88950001I0J249999D01*
G01*
X123125000Y-88149999D01*
G75*
G02*
X123374999Y-87900000I249999J0D01*
G01*
X124625001Y-87900000D01*
G75*
G02*
X124875000Y-88149999I0J-249999D01*
G01*
X124875000Y-88950001D01*
G75*
G02*
X124625001Y-89200000I-249999J0D01*
G01*
G37*
G36*
G01*
X127924999Y-103400000D02*
X130075001Y-103400000D01*
G75*
G02*
X130325000Y-103649999I0J-249999D01*
G01*
X130325000Y-104450001D01*
G75*
G02*
X130075001Y-104700000I-249999J0D01*
G01*
X127924999Y-104700000D01*
G75*
G02*
X127675000Y-104450001I0J249999D01*
G01*
X127675000Y-103649999D01*
G75*
G02*
X127924999Y-103400000I249999J0D01*
G01*
G37*
G36*
G01*
X127924999Y-100300000D02*
X130075001Y-100300000D01*
G75*
G02*
X130325000Y-100549999I0J-249999D01*
G01*
X130325000Y-101350001D01*
G75*
G02*
X130075001Y-101600000I-249999J0D01*
G01*
X127924999Y-101600000D01*
G75*
G02*
X127675000Y-101350001I0J249999D01*
G01*
X127675000Y-100549999D01*
G75*
G02*
X127924999Y-100300000I249999J0D01*
G01*
G37*
G36*
G01*
X126924999Y-112900000D02*
X129075001Y-112900000D01*
G75*
G02*
X129325000Y-113149999I0J-249999D01*
G01*
X129325000Y-113950001D01*
G75*
G02*
X129075001Y-114200000I-249999J0D01*
G01*
X126924999Y-114200000D01*
G75*
G02*
X126675000Y-113950001I0J249999D01*
G01*
X126675000Y-113149999D01*
G75*
G02*
X126924999Y-112900000I249999J0D01*
G01*
G37*
G36*
G01*
X126924999Y-109800000D02*
X129075001Y-109800000D01*
G75*
G02*
X129325000Y-110049999I0J-249999D01*
G01*
X129325000Y-110850001D01*
G75*
G02*
X129075001Y-111100000I-249999J0D01*
G01*
X126924999Y-111100000D01*
G75*
G02*
X126675000Y-110850001I0J249999D01*
G01*
X126675000Y-110049999D01*
G75*
G02*
X126924999Y-109800000I249999J0D01*
G01*
G37*
G36*
G01*
X135870000Y-104065001D02*
X135870000Y-101914999D01*
G75*
G02*
X136119999Y-101665000I249999J0D01*
G01*
X136920001Y-101665000D01*
G75*
G02*
X137170000Y-101914999I0J-249999D01*
G01*
X137170000Y-104065001D01*
G75*
G02*
X136920001Y-104315000I-249999J0D01*
G01*
X136119999Y-104315000D01*
G75*
G02*
X135870000Y-104065001I0J249999D01*
G01*
G37*
G36*
G01*
X132770000Y-104065001D02*
X132770000Y-101914999D01*
G75*
G02*
X133019999Y-101665000I249999J0D01*
G01*
X133820001Y-101665000D01*
G75*
G02*
X134070000Y-101914999I0J-249999D01*
G01*
X134070000Y-104065001D01*
G75*
G02*
X133820001Y-104315000I-249999J0D01*
G01*
X133019999Y-104315000D01*
G75*
G02*
X132770000Y-104065001I0J249999D01*
G01*
G37*
G36*
G01*
X84849997Y-58900000D02*
X86150003Y-58900000D01*
G75*
G02*
X86400000Y-59149997I0J-249997D01*
G01*
X86400000Y-59975003D01*
G75*
G02*
X86150003Y-60225000I-249997J0D01*
G01*
X84849997Y-60225000D01*
G75*
G02*
X84600000Y-59975003I0J249997D01*
G01*
X84600000Y-59149997D01*
G75*
G02*
X84849997Y-58900000I249997J0D01*
G01*
G37*
G36*
G01*
X84849997Y-55775000D02*
X86150003Y-55775000D01*
G75*
G02*
X86400000Y-56024997I0J-249997D01*
G01*
X86400000Y-56850003D01*
G75*
G02*
X86150003Y-57100000I-249997J0D01*
G01*
X84849997Y-57100000D01*
G75*
G02*
X84600000Y-56850003I0J249997D01*
G01*
X84600000Y-56024997D01*
G75*
G02*
X84849997Y-55775000I249997J0D01*
G01*
G37*
G36*
G01*
X130899997Y-112900000D02*
X133100003Y-112900000D01*
G75*
G02*
X133350000Y-113149997I0J-249997D01*
G01*
X133350000Y-113975003D01*
G75*
G02*
X133100003Y-114225000I-249997J0D01*
G01*
X130899997Y-114225000D01*
G75*
G02*
X130650000Y-113975003I0J249997D01*
G01*
X130650000Y-113149997D01*
G75*
G02*
X130899997Y-112900000I249997J0D01*
G01*
G37*
G36*
G01*
X130899997Y-109775000D02*
X133100003Y-109775000D01*
G75*
G02*
X133350000Y-110024997I0J-249997D01*
G01*
X133350000Y-110850003D01*
G75*
G02*
X133100003Y-111100000I-249997J0D01*
G01*
X130899997Y-111100000D01*
G75*
G02*
X130650000Y-110850003I0J249997D01*
G01*
X130650000Y-110024997D01*
G75*
G02*
X130899997Y-109775000I249997J0D01*
G01*
G37*
G36*
G01*
X157900000Y-94150003D02*
X157900000Y-92849997D01*
G75*
G02*
X158149997Y-92600000I249997J0D01*
G01*
X158975003Y-92600000D01*
G75*
G02*
X159225000Y-92849997I0J-249997D01*
G01*
X159225000Y-94150003D01*
G75*
G02*
X158975003Y-94400000I-249997J0D01*
G01*
X158149997Y-94400000D01*
G75*
G02*
X157900000Y-94150003I0J249997D01*
G01*
G37*
G36*
G01*
X154775000Y-94150003D02*
X154775000Y-92849997D01*
G75*
G02*
X155024997Y-92600000I249997J0D01*
G01*
X155850003Y-92600000D01*
G75*
G02*
X156100000Y-92849997I0J-249997D01*
G01*
X156100000Y-94150003D01*
G75*
G02*
X155850003Y-94400000I-249997J0D01*
G01*
X155024997Y-94400000D01*
G75*
G02*
X154775000Y-94150003I0J249997D01*
G01*
G37*
G36*
G01*
X149140000Y-42270000D02*
X149140000Y-41950000D01*
G75*
G02*
X149300000Y-41790000I160000J0D01*
G01*
X149695000Y-41790000D01*
G75*
G02*
X149855000Y-41950000I0J-160000D01*
G01*
X149855000Y-42270000D01*
G75*
G02*
X149695000Y-42430000I-160000J0D01*
G01*
X149300000Y-42430000D01*
G75*
G02*
X149140000Y-42270000I0J160000D01*
G01*
G37*
G36*
G01*
X147945000Y-42270000D02*
X147945000Y-41950000D01*
G75*
G02*
X148105000Y-41790000I160000J0D01*
G01*
X148500000Y-41790000D01*
G75*
G02*
X148660000Y-41950000I0J-160000D01*
G01*
X148660000Y-42270000D01*
G75*
G02*
X148500000Y-42430000I-160000J0D01*
G01*
X148105000Y-42430000D01*
G75*
G02*
X147945000Y-42270000I0J160000D01*
G01*
G37*
G36*
G01*
X147660000Y-57260000D02*
X147340000Y-57260000D01*
G75*
G02*
X147180000Y-57100000I0J160000D01*
G01*
X147180000Y-56705000D01*
G75*
G02*
X147340000Y-56545000I160000J0D01*
G01*
X147660000Y-56545000D01*
G75*
G02*
X147820000Y-56705000I0J-160000D01*
G01*
X147820000Y-57100000D01*
G75*
G02*
X147660000Y-57260000I-160000J0D01*
G01*
G37*
G36*
G01*
X147660000Y-58455000D02*
X147340000Y-58455000D01*
G75*
G02*
X147180000Y-58295000I0J160000D01*
G01*
X147180000Y-57900000D01*
G75*
G02*
X147340000Y-57740000I160000J0D01*
G01*
X147660000Y-57740000D01*
G75*
G02*
X147820000Y-57900000I0J-160000D01*
G01*
X147820000Y-58295000D01*
G75*
G02*
X147660000Y-58455000I-160000J0D01*
G01*
G37*
G36*
G01*
X146160000Y-57260000D02*
X145840000Y-57260000D01*
G75*
G02*
X145680000Y-57100000I0J160000D01*
G01*
X145680000Y-56705000D01*
G75*
G02*
X145840000Y-56545000I160000J0D01*
G01*
X146160000Y-56545000D01*
G75*
G02*
X146320000Y-56705000I0J-160000D01*
G01*
X146320000Y-57100000D01*
G75*
G02*
X146160000Y-57260000I-160000J0D01*
G01*
G37*
G36*
G01*
X146160000Y-58455000D02*
X145840000Y-58455000D01*
G75*
G02*
X145680000Y-58295000I0J160000D01*
G01*
X145680000Y-57900000D01*
G75*
G02*
X145840000Y-57740000I160000J0D01*
G01*
X146160000Y-57740000D01*
G75*
G02*
X146320000Y-57900000I0J-160000D01*
G01*
X146320000Y-58295000D01*
G75*
G02*
X146160000Y-58455000I-160000J0D01*
G01*
G37*
G36*
G01*
X157900000Y-89625001D02*
X157900000Y-88374999D01*
G75*
G02*
X158149999Y-88125000I249999J0D01*
G01*
X158950001Y-88125000D01*
G75*
G02*
X159200000Y-88374999I0J-249999D01*
G01*
X159200000Y-89625001D01*
G75*
G02*
X158950001Y-89875000I-249999J0D01*
G01*
X158149999Y-89875000D01*
G75*
G02*
X157900000Y-89625001I0J249999D01*
G01*
G37*
G36*
G01*
X154800000Y-89625001D02*
X154800000Y-88374999D01*
G75*
G02*
X155049999Y-88125000I249999J0D01*
G01*
X155850001Y-88125000D01*
G75*
G02*
X156100000Y-88374999I0J-249999D01*
G01*
X156100000Y-89625001D01*
G75*
G02*
X155850001Y-89875000I-249999J0D01*
G01*
X155049999Y-89875000D01*
G75*
G02*
X154800000Y-89625001I0J249999D01*
G01*
G37*
G36*
G01*
X86125001Y-51100000D02*
X84874999Y-51100000D01*
G75*
G02*
X84625000Y-50850001I0J249999D01*
G01*
X84625000Y-50049999D01*
G75*
G02*
X84874999Y-49800000I249999J0D01*
G01*
X86125001Y-49800000D01*
G75*
G02*
X86375000Y-50049999I0J-249999D01*
G01*
X86375000Y-50850001D01*
G75*
G02*
X86125001Y-51100000I-249999J0D01*
G01*
G37*
G36*
G01*
X86125001Y-54200000D02*
X84874999Y-54200000D01*
G75*
G02*
X84625000Y-53950001I0J249999D01*
G01*
X84625000Y-53149999D01*
G75*
G02*
X84874999Y-52900000I249999J0D01*
G01*
X86125001Y-52900000D01*
G75*
G02*
X86375000Y-53149999I0J-249999D01*
G01*
X86375000Y-53950001D01*
G75*
G02*
X86125001Y-54200000I-249999J0D01*
G01*
G37*
G36*
G01*
X84799999Y-71550000D02*
X86200001Y-71550000D01*
G75*
G02*
X86450000Y-71799999I0J-249999D01*
G01*
X86450000Y-72525001D01*
G75*
G02*
X86200001Y-72775000I-249999J0D01*
G01*
X84799999Y-72775000D01*
G75*
G02*
X84550000Y-72525001I0J249999D01*
G01*
X84550000Y-71799999D01*
G75*
G02*
X84799999Y-71550000I249999J0D01*
G01*
G37*
G36*
G01*
X84799999Y-68225000D02*
X86200001Y-68225000D01*
G75*
G02*
X86450000Y-68474999I0J-249999D01*
G01*
X86450000Y-69200001D01*
G75*
G02*
X86200001Y-69450000I-249999J0D01*
G01*
X84799999Y-69450000D01*
G75*
G02*
X84550000Y-69200001I0J249999D01*
G01*
X84550000Y-68474999D01*
G75*
G02*
X84799999Y-68225000I249999J0D01*
G01*
G37*
G36*
G01*
X144160000Y-39810000D02*
X143840000Y-39810000D01*
G75*
G02*
X143680000Y-39650000I0J160000D01*
G01*
X143680000Y-39205000D01*
G75*
G02*
X143840000Y-39045000I160000J0D01*
G01*
X144160000Y-39045000D01*
G75*
G02*
X144320000Y-39205000I0J-160000D01*
G01*
X144320000Y-39650000D01*
G75*
G02*
X144160000Y-39810000I-160000J0D01*
G01*
G37*
G36*
G01*
X144160000Y-40955000D02*
X143840000Y-40955000D01*
G75*
G02*
X143680000Y-40795000I0J160000D01*
G01*
X143680000Y-40350000D01*
G75*
G02*
X143840000Y-40190000I160000J0D01*
G01*
X144160000Y-40190000D01*
G75*
G02*
X144320000Y-40350000I0J-160000D01*
G01*
X144320000Y-40795000D01*
G75*
G02*
X144160000Y-40955000I-160000J0D01*
G01*
G37*
G36*
G01*
X116660000Y-77310000D02*
X116340000Y-77310000D01*
G75*
G02*
X116180000Y-77150000I0J160000D01*
G01*
X116180000Y-76705000D01*
G75*
G02*
X116340000Y-76545000I160000J0D01*
G01*
X116660000Y-76545000D01*
G75*
G02*
X116820000Y-76705000I0J-160000D01*
G01*
X116820000Y-77150000D01*
G75*
G02*
X116660000Y-77310000I-160000J0D01*
G01*
G37*
G36*
G01*
X116660000Y-78455000D02*
X116340000Y-78455000D01*
G75*
G02*
X116180000Y-78295000I0J160000D01*
G01*
X116180000Y-77850000D01*
G75*
G02*
X116340000Y-77690000I160000J0D01*
G01*
X116660000Y-77690000D01*
G75*
G02*
X116820000Y-77850000I0J-160000D01*
G01*
X116820000Y-78295000D01*
G75*
G02*
X116660000Y-78455000I-160000J0D01*
G01*
G37*
D21*
X160000000Y-112000000D03*
X86500000Y-45500000D03*
X88500000Y-120000000D03*
D22*
X82780419Y-37719581D03*
X80500000Y-36775000D03*
X78219581Y-37719581D03*
X77275000Y-40000000D03*
X78219581Y-42280419D03*
X80500000Y-43225000D03*
X82780419Y-42280419D03*
X83725000Y-40000000D03*
D23*
X80500000Y-40000000D03*
G36*
G01*
X86150003Y-67225000D02*
X84849997Y-67225000D01*
G75*
G02*
X84600000Y-66975003I0J249997D01*
G01*
X84600000Y-66149997D01*
G75*
G02*
X84849997Y-65900000I249997J0D01*
G01*
X86150003Y-65900000D01*
G75*
G02*
X86400000Y-66149997I0J-249997D01*
G01*
X86400000Y-66975003D01*
G75*
G02*
X86150003Y-67225000I-249997J0D01*
G01*
G37*
G36*
G01*
X86150003Y-64100000D02*
X84849997Y-64100000D01*
G75*
G02*
X84600000Y-63850003I0J249997D01*
G01*
X84600000Y-63024997D01*
G75*
G02*
X84849997Y-62775000I249997J0D01*
G01*
X86150003Y-62775000D01*
G75*
G02*
X86400000Y-63024997I0J-249997D01*
G01*
X86400000Y-63850003D01*
G75*
G02*
X86150003Y-64100000I-249997J0D01*
G01*
G37*
G36*
G01*
X90000000Y-76824997D02*
X90000000Y-78125003D01*
G75*
G02*
X89750003Y-78375000I-249997J0D01*
G01*
X88924997Y-78375000D01*
G75*
G02*
X88675000Y-78125003I0J249997D01*
G01*
X88675000Y-76824997D01*
G75*
G02*
X88924997Y-76575000I249997J0D01*
G01*
X89750003Y-76575000D01*
G75*
G02*
X90000000Y-76824997I0J-249997D01*
G01*
G37*
G36*
G01*
X93125000Y-76824997D02*
X93125000Y-78125003D01*
G75*
G02*
X92875003Y-78375000I-249997J0D01*
G01*
X92049997Y-78375000D01*
G75*
G02*
X91800000Y-78125003I0J249997D01*
G01*
X91800000Y-76824997D01*
G75*
G02*
X92049997Y-76575000I249997J0D01*
G01*
X92875003Y-76575000D01*
G75*
G02*
X93125000Y-76824997I0J-249997D01*
G01*
G37*
G36*
G01*
X118600000Y-66752500D02*
X118600000Y-67227500D01*
G75*
G02*
X118362500Y-67465000I-237500J0D01*
G01*
X117762500Y-67465000D01*
G75*
G02*
X117525000Y-67227500I0J237500D01*
G01*
X117525000Y-66752500D01*
G75*
G02*
X117762500Y-66515000I237500J0D01*
G01*
X118362500Y-66515000D01*
G75*
G02*
X118600000Y-66752500I0J-237500D01*
G01*
G37*
G36*
G01*
X116875000Y-66752500D02*
X116875000Y-67227500D01*
G75*
G02*
X116637500Y-67465000I-237500J0D01*
G01*
X116037500Y-67465000D01*
G75*
G02*
X115800000Y-67227500I0J237500D01*
G01*
X115800000Y-66752500D01*
G75*
G02*
X116037500Y-66515000I237500J0D01*
G01*
X116637500Y-66515000D01*
G75*
G02*
X116875000Y-66752500I0J-237500D01*
G01*
G37*
G36*
G01*
X118435000Y-69845000D02*
X118435000Y-70155000D01*
G75*
G02*
X118280000Y-70310000I-155000J0D01*
G01*
X117855000Y-70310000D01*
G75*
G02*
X117700000Y-70155000I0J155000D01*
G01*
X117700000Y-69845000D01*
G75*
G02*
X117855000Y-69690000I155000J0D01*
G01*
X118280000Y-69690000D01*
G75*
G02*
X118435000Y-69845000I0J-155000D01*
G01*
G37*
G36*
G01*
X117300000Y-69845000D02*
X117300000Y-70155000D01*
G75*
G02*
X117145000Y-70310000I-155000J0D01*
G01*
X116720000Y-70310000D01*
G75*
G02*
X116565000Y-70155000I0J155000D01*
G01*
X116565000Y-69845000D01*
G75*
G02*
X116720000Y-69690000I155000J0D01*
G01*
X117145000Y-69690000D01*
G75*
G02*
X117300000Y-69845000I0J-155000D01*
G01*
G37*
G36*
G01*
X122200000Y-67155000D02*
X122200000Y-66845000D01*
G75*
G02*
X122355000Y-66690000I155000J0D01*
G01*
X122780000Y-66690000D01*
G75*
G02*
X122935000Y-66845000I0J-155000D01*
G01*
X122935000Y-67155000D01*
G75*
G02*
X122780000Y-67310000I-155000J0D01*
G01*
X122355000Y-67310000D01*
G75*
G02*
X122200000Y-67155000I0J155000D01*
G01*
G37*
G36*
G01*
X121065000Y-67155000D02*
X121065000Y-66845000D01*
G75*
G02*
X121220000Y-66690000I155000J0D01*
G01*
X121645000Y-66690000D01*
G75*
G02*
X121800000Y-66845000I0J-155000D01*
G01*
X121800000Y-67155000D01*
G75*
G02*
X121645000Y-67310000I-155000J0D01*
G01*
X121220000Y-67310000D01*
G75*
G02*
X121065000Y-67155000I0J155000D01*
G01*
G37*
G36*
G01*
X130845000Y-69315000D02*
X131155000Y-69315000D01*
G75*
G02*
X131310000Y-69470000I0J-155000D01*
G01*
X131310000Y-69895000D01*
G75*
G02*
X131155000Y-70050000I-155000J0D01*
G01*
X130845000Y-70050000D01*
G75*
G02*
X130690000Y-69895000I0J155000D01*
G01*
X130690000Y-69470000D01*
G75*
G02*
X130845000Y-69315000I155000J0D01*
G01*
G37*
G36*
G01*
X130845000Y-70450000D02*
X131155000Y-70450000D01*
G75*
G02*
X131310000Y-70605000I0J-155000D01*
G01*
X131310000Y-71030000D01*
G75*
G02*
X131155000Y-71185000I-155000J0D01*
G01*
X130845000Y-71185000D01*
G75*
G02*
X130690000Y-71030000I0J155000D01*
G01*
X130690000Y-70605000D01*
G75*
G02*
X130845000Y-70450000I155000J0D01*
G01*
G37*
G36*
G01*
X127820000Y-79845000D02*
X127820000Y-80155000D01*
G75*
G02*
X127665000Y-80310000I-155000J0D01*
G01*
X127240000Y-80310000D01*
G75*
G02*
X127085000Y-80155000I0J155000D01*
G01*
X127085000Y-79845000D01*
G75*
G02*
X127240000Y-79690000I155000J0D01*
G01*
X127665000Y-79690000D01*
G75*
G02*
X127820000Y-79845000I0J-155000D01*
G01*
G37*
G36*
G01*
X128955000Y-79845000D02*
X128955000Y-80155000D01*
G75*
G02*
X128800000Y-80310000I-155000J0D01*
G01*
X128375000Y-80310000D01*
G75*
G02*
X128220000Y-80155000I0J155000D01*
G01*
X128220000Y-79845000D01*
G75*
G02*
X128375000Y-79690000I155000J0D01*
G01*
X128800000Y-79690000D01*
G75*
G02*
X128955000Y-79845000I0J-155000D01*
G01*
G37*
G36*
G01*
X116655000Y-75535000D02*
X116345000Y-75535000D01*
G75*
G02*
X116190000Y-75380000I0J155000D01*
G01*
X116190000Y-74955000D01*
G75*
G02*
X116345000Y-74800000I155000J0D01*
G01*
X116655000Y-74800000D01*
G75*
G02*
X116810000Y-74955000I0J-155000D01*
G01*
X116810000Y-75380000D01*
G75*
G02*
X116655000Y-75535000I-155000J0D01*
G01*
G37*
G36*
G01*
X116655000Y-74400000D02*
X116345000Y-74400000D01*
G75*
G02*
X116190000Y-74245000I0J155000D01*
G01*
X116190000Y-73820000D01*
G75*
G02*
X116345000Y-73665000I155000J0D01*
G01*
X116655000Y-73665000D01*
G75*
G02*
X116810000Y-73820000I0J-155000D01*
G01*
X116810000Y-74245000D01*
G75*
G02*
X116655000Y-74400000I-155000J0D01*
G01*
G37*
G36*
G01*
X118155000Y-74400000D02*
X117845000Y-74400000D01*
G75*
G02*
X117690000Y-74245000I0J155000D01*
G01*
X117690000Y-73820000D01*
G75*
G02*
X117845000Y-73665000I155000J0D01*
G01*
X118155000Y-73665000D01*
G75*
G02*
X118310000Y-73820000I0J-155000D01*
G01*
X118310000Y-74245000D01*
G75*
G02*
X118155000Y-74400000I-155000J0D01*
G01*
G37*
G36*
G01*
X118155000Y-75535000D02*
X117845000Y-75535000D01*
G75*
G02*
X117690000Y-75380000I0J155000D01*
G01*
X117690000Y-74955000D01*
G75*
G02*
X117845000Y-74800000I155000J0D01*
G01*
X118155000Y-74800000D01*
G75*
G02*
X118310000Y-74955000I0J-155000D01*
G01*
X118310000Y-75380000D01*
G75*
G02*
X118155000Y-75535000I-155000J0D01*
G01*
G37*
G36*
G01*
X151535000Y-79410000D02*
X151845000Y-79410000D01*
G75*
G02*
X152000000Y-79565000I0J-155000D01*
G01*
X152000000Y-79990000D01*
G75*
G02*
X151845000Y-80145000I-155000J0D01*
G01*
X151535000Y-80145000D01*
G75*
G02*
X151380000Y-79990000I0J155000D01*
G01*
X151380000Y-79565000D01*
G75*
G02*
X151535000Y-79410000I155000J0D01*
G01*
G37*
G36*
G01*
X151535000Y-78275000D02*
X151845000Y-78275000D01*
G75*
G02*
X152000000Y-78430000I0J-155000D01*
G01*
X152000000Y-78855000D01*
G75*
G02*
X151845000Y-79010000I-155000J0D01*
G01*
X151535000Y-79010000D01*
G75*
G02*
X151380000Y-78855000I0J155000D01*
G01*
X151380000Y-78430000D01*
G75*
G02*
X151535000Y-78275000I155000J0D01*
G01*
G37*
G36*
G01*
X113155000Y-71935000D02*
X112845000Y-71935000D01*
G75*
G02*
X112690000Y-71780000I0J155000D01*
G01*
X112690000Y-71355000D01*
G75*
G02*
X112845000Y-71200000I155000J0D01*
G01*
X113155000Y-71200000D01*
G75*
G02*
X113310000Y-71355000I0J-155000D01*
G01*
X113310000Y-71780000D01*
G75*
G02*
X113155000Y-71935000I-155000J0D01*
G01*
G37*
G36*
G01*
X113155000Y-70800000D02*
X112845000Y-70800000D01*
G75*
G02*
X112690000Y-70645000I0J155000D01*
G01*
X112690000Y-70220000D01*
G75*
G02*
X112845000Y-70065000I155000J0D01*
G01*
X113155000Y-70065000D01*
G75*
G02*
X113310000Y-70220000I0J-155000D01*
G01*
X113310000Y-70645000D01*
G75*
G02*
X113155000Y-70800000I-155000J0D01*
G01*
G37*
G36*
G01*
X113155000Y-57935000D02*
X112845000Y-57935000D01*
G75*
G02*
X112690000Y-57780000I0J155000D01*
G01*
X112690000Y-57355000D01*
G75*
G02*
X112845000Y-57200000I155000J0D01*
G01*
X113155000Y-57200000D01*
G75*
G02*
X113310000Y-57355000I0J-155000D01*
G01*
X113310000Y-57780000D01*
G75*
G02*
X113155000Y-57935000I-155000J0D01*
G01*
G37*
G36*
G01*
X113155000Y-56800000D02*
X112845000Y-56800000D01*
G75*
G02*
X112690000Y-56645000I0J155000D01*
G01*
X112690000Y-56220000D01*
G75*
G02*
X112845000Y-56065000I155000J0D01*
G01*
X113155000Y-56065000D01*
G75*
G02*
X113310000Y-56220000I0J-155000D01*
G01*
X113310000Y-56645000D01*
G75*
G02*
X113155000Y-56800000I-155000J0D01*
G01*
G37*
G36*
G01*
X112845000Y-82700000D02*
X113155000Y-82700000D01*
G75*
G02*
X113310000Y-82855000I0J-155000D01*
G01*
X113310000Y-83280000D01*
G75*
G02*
X113155000Y-83435000I-155000J0D01*
G01*
X112845000Y-83435000D01*
G75*
G02*
X112690000Y-83280000I0J155000D01*
G01*
X112690000Y-82855000D01*
G75*
G02*
X112845000Y-82700000I155000J0D01*
G01*
G37*
G36*
G01*
X112845000Y-81565000D02*
X113155000Y-81565000D01*
G75*
G02*
X113310000Y-81720000I0J-155000D01*
G01*
X113310000Y-82145000D01*
G75*
G02*
X113155000Y-82300000I-155000J0D01*
G01*
X112845000Y-82300000D01*
G75*
G02*
X112690000Y-82145000I0J155000D01*
G01*
X112690000Y-81720000D01*
G75*
G02*
X112845000Y-81565000I155000J0D01*
G01*
G37*
G36*
G01*
X109870000Y-66845000D02*
X109870000Y-67155000D01*
G75*
G02*
X109715000Y-67310000I-155000J0D01*
G01*
X109290000Y-67310000D01*
G75*
G02*
X109135000Y-67155000I0J155000D01*
G01*
X109135000Y-66845000D01*
G75*
G02*
X109290000Y-66690000I155000J0D01*
G01*
X109715000Y-66690000D01*
G75*
G02*
X109870000Y-66845000I0J-155000D01*
G01*
G37*
G36*
G01*
X111005000Y-66845000D02*
X111005000Y-67155000D01*
G75*
G02*
X110850000Y-67310000I-155000J0D01*
G01*
X110425000Y-67310000D01*
G75*
G02*
X110270000Y-67155000I0J155000D01*
G01*
X110270000Y-66845000D01*
G75*
G02*
X110425000Y-66690000I155000J0D01*
G01*
X110850000Y-66690000D01*
G75*
G02*
X111005000Y-66845000I0J-155000D01*
G01*
G37*
G36*
G01*
X126345000Y-47700000D02*
X126655000Y-47700000D01*
G75*
G02*
X126810000Y-47855000I0J-155000D01*
G01*
X126810000Y-48280000D01*
G75*
G02*
X126655000Y-48435000I-155000J0D01*
G01*
X126345000Y-48435000D01*
G75*
G02*
X126190000Y-48280000I0J155000D01*
G01*
X126190000Y-47855000D01*
G75*
G02*
X126345000Y-47700000I155000J0D01*
G01*
G37*
G36*
G01*
X126345000Y-46565000D02*
X126655000Y-46565000D01*
G75*
G02*
X126810000Y-46720000I0J-155000D01*
G01*
X126810000Y-47145000D01*
G75*
G02*
X126655000Y-47300000I-155000J0D01*
G01*
X126345000Y-47300000D01*
G75*
G02*
X126190000Y-47145000I0J155000D01*
G01*
X126190000Y-46720000D01*
G75*
G02*
X126345000Y-46565000I155000J0D01*
G01*
G37*
G36*
G01*
X138565000Y-49895000D02*
X138565000Y-49585000D01*
G75*
G02*
X138720000Y-49430000I155000J0D01*
G01*
X139145000Y-49430000D01*
G75*
G02*
X139300000Y-49585000I0J-155000D01*
G01*
X139300000Y-49895000D01*
G75*
G02*
X139145000Y-50050000I-155000J0D01*
G01*
X138720000Y-50050000D01*
G75*
G02*
X138565000Y-49895000I0J155000D01*
G01*
G37*
G36*
G01*
X139700000Y-49895000D02*
X139700000Y-49585000D01*
G75*
G02*
X139855000Y-49430000I155000J0D01*
G01*
X140280000Y-49430000D01*
G75*
G02*
X140435000Y-49585000I0J-155000D01*
G01*
X140435000Y-49895000D01*
G75*
G02*
X140280000Y-50050000I-155000J0D01*
G01*
X139855000Y-50050000D01*
G75*
G02*
X139700000Y-49895000I0J155000D01*
G01*
G37*
G36*
G01*
X133845000Y-51200000D02*
X134155000Y-51200000D01*
G75*
G02*
X134310000Y-51355000I0J-155000D01*
G01*
X134310000Y-51780000D01*
G75*
G02*
X134155000Y-51935000I-155000J0D01*
G01*
X133845000Y-51935000D01*
G75*
G02*
X133690000Y-51780000I0J155000D01*
G01*
X133690000Y-51355000D01*
G75*
G02*
X133845000Y-51200000I155000J0D01*
G01*
G37*
G36*
G01*
X133845000Y-50065000D02*
X134155000Y-50065000D01*
G75*
G02*
X134310000Y-50220000I0J-155000D01*
G01*
X134310000Y-50645000D01*
G75*
G02*
X134155000Y-50800000I-155000J0D01*
G01*
X133845000Y-50800000D01*
G75*
G02*
X133690000Y-50645000I0J155000D01*
G01*
X133690000Y-50220000D01*
G75*
G02*
X133845000Y-50065000I155000J0D01*
G01*
G37*
G36*
G01*
X138565000Y-47895000D02*
X138565000Y-47585000D01*
G75*
G02*
X138720000Y-47430000I155000J0D01*
G01*
X139145000Y-47430000D01*
G75*
G02*
X139300000Y-47585000I0J-155000D01*
G01*
X139300000Y-47895000D01*
G75*
G02*
X139145000Y-48050000I-155000J0D01*
G01*
X138720000Y-48050000D01*
G75*
G02*
X138565000Y-47895000I0J155000D01*
G01*
G37*
G36*
G01*
X139700000Y-47895000D02*
X139700000Y-47585000D01*
G75*
G02*
X139855000Y-47430000I155000J0D01*
G01*
X140280000Y-47430000D01*
G75*
G02*
X140435000Y-47585000I0J-155000D01*
G01*
X140435000Y-47895000D01*
G75*
G02*
X140280000Y-48050000I-155000J0D01*
G01*
X139855000Y-48050000D01*
G75*
G02*
X139700000Y-47895000I0J155000D01*
G01*
G37*
G36*
G01*
X135345000Y-51200000D02*
X135655000Y-51200000D01*
G75*
G02*
X135810000Y-51355000I0J-155000D01*
G01*
X135810000Y-51780000D01*
G75*
G02*
X135655000Y-51935000I-155000J0D01*
G01*
X135345000Y-51935000D01*
G75*
G02*
X135190000Y-51780000I0J155000D01*
G01*
X135190000Y-51355000D01*
G75*
G02*
X135345000Y-51200000I155000J0D01*
G01*
G37*
G36*
G01*
X135345000Y-50065000D02*
X135655000Y-50065000D01*
G75*
G02*
X135810000Y-50220000I0J-155000D01*
G01*
X135810000Y-50645000D01*
G75*
G02*
X135655000Y-50800000I-155000J0D01*
G01*
X135345000Y-50800000D01*
G75*
G02*
X135190000Y-50645000I0J155000D01*
G01*
X135190000Y-50220000D01*
G75*
G02*
X135345000Y-50065000I155000J0D01*
G01*
G37*
G36*
G01*
X135905000Y-42935000D02*
X135595000Y-42935000D01*
G75*
G02*
X135440000Y-42780000I0J155000D01*
G01*
X135440000Y-42355000D01*
G75*
G02*
X135595000Y-42200000I155000J0D01*
G01*
X135905000Y-42200000D01*
G75*
G02*
X136060000Y-42355000I0J-155000D01*
G01*
X136060000Y-42780000D01*
G75*
G02*
X135905000Y-42935000I-155000J0D01*
G01*
G37*
G36*
G01*
X135905000Y-41800000D02*
X135595000Y-41800000D01*
G75*
G02*
X135440000Y-41645000I0J155000D01*
G01*
X135440000Y-41220000D01*
G75*
G02*
X135595000Y-41065000I155000J0D01*
G01*
X135905000Y-41065000D01*
G75*
G02*
X136060000Y-41220000I0J-155000D01*
G01*
X136060000Y-41645000D01*
G75*
G02*
X135905000Y-41800000I-155000J0D01*
G01*
G37*
G36*
G01*
X114700000Y-49895000D02*
X114700000Y-49585000D01*
G75*
G02*
X114855000Y-49430000I155000J0D01*
G01*
X115280000Y-49430000D01*
G75*
G02*
X115435000Y-49585000I0J-155000D01*
G01*
X115435000Y-49895000D01*
G75*
G02*
X115280000Y-50050000I-155000J0D01*
G01*
X114855000Y-50050000D01*
G75*
G02*
X114700000Y-49895000I0J155000D01*
G01*
G37*
G36*
G01*
X113565000Y-49895000D02*
X113565000Y-49585000D01*
G75*
G02*
X113720000Y-49430000I155000J0D01*
G01*
X114145000Y-49430000D01*
G75*
G02*
X114300000Y-49585000I0J-155000D01*
G01*
X114300000Y-49895000D01*
G75*
G02*
X114145000Y-50050000I-155000J0D01*
G01*
X113720000Y-50050000D01*
G75*
G02*
X113565000Y-49895000I0J155000D01*
G01*
G37*
G36*
G01*
X113565000Y-51895000D02*
X113565000Y-51585000D01*
G75*
G02*
X113720000Y-51430000I155000J0D01*
G01*
X114145000Y-51430000D01*
G75*
G02*
X114300000Y-51585000I0J-155000D01*
G01*
X114300000Y-51895000D01*
G75*
G02*
X114145000Y-52050000I-155000J0D01*
G01*
X113720000Y-52050000D01*
G75*
G02*
X113565000Y-51895000I0J155000D01*
G01*
G37*
G36*
G01*
X114700000Y-51895000D02*
X114700000Y-51585000D01*
G75*
G02*
X114855000Y-51430000I155000J0D01*
G01*
X115280000Y-51430000D01*
G75*
G02*
X115435000Y-51585000I0J-155000D01*
G01*
X115435000Y-51895000D01*
G75*
G02*
X115280000Y-52050000I-155000J0D01*
G01*
X114855000Y-52050000D01*
G75*
G02*
X114700000Y-51895000I0J155000D01*
G01*
G37*
G36*
G01*
X154845000Y-56065000D02*
X155155000Y-56065000D01*
G75*
G02*
X155310000Y-56220000I0J-155000D01*
G01*
X155310000Y-56645000D01*
G75*
G02*
X155155000Y-56800000I-155000J0D01*
G01*
X154845000Y-56800000D01*
G75*
G02*
X154690000Y-56645000I0J155000D01*
G01*
X154690000Y-56220000D01*
G75*
G02*
X154845000Y-56065000I155000J0D01*
G01*
G37*
G36*
G01*
X154845000Y-57200000D02*
X155155000Y-57200000D01*
G75*
G02*
X155310000Y-57355000I0J-155000D01*
G01*
X155310000Y-57780000D01*
G75*
G02*
X155155000Y-57935000I-155000J0D01*
G01*
X154845000Y-57935000D01*
G75*
G02*
X154690000Y-57780000I0J155000D01*
G01*
X154690000Y-57355000D01*
G75*
G02*
X154845000Y-57200000I155000J0D01*
G01*
G37*
G36*
G01*
X150345000Y-57200000D02*
X150655000Y-57200000D01*
G75*
G02*
X150810000Y-57355000I0J-155000D01*
G01*
X150810000Y-57780000D01*
G75*
G02*
X150655000Y-57935000I-155000J0D01*
G01*
X150345000Y-57935000D01*
G75*
G02*
X150190000Y-57780000I0J155000D01*
G01*
X150190000Y-57355000D01*
G75*
G02*
X150345000Y-57200000I155000J0D01*
G01*
G37*
G36*
G01*
X150345000Y-56065000D02*
X150655000Y-56065000D01*
G75*
G02*
X150810000Y-56220000I0J-155000D01*
G01*
X150810000Y-56645000D01*
G75*
G02*
X150655000Y-56800000I-155000J0D01*
G01*
X150345000Y-56800000D01*
G75*
G02*
X150190000Y-56645000I0J155000D01*
G01*
X150190000Y-56220000D01*
G75*
G02*
X150345000Y-56065000I155000J0D01*
G01*
G37*
G36*
G01*
X151845000Y-56065000D02*
X152155000Y-56065000D01*
G75*
G02*
X152310000Y-56220000I0J-155000D01*
G01*
X152310000Y-56645000D01*
G75*
G02*
X152155000Y-56800000I-155000J0D01*
G01*
X151845000Y-56800000D01*
G75*
G02*
X151690000Y-56645000I0J155000D01*
G01*
X151690000Y-56220000D01*
G75*
G02*
X151845000Y-56065000I155000J0D01*
G01*
G37*
G36*
G01*
X151845000Y-57200000D02*
X152155000Y-57200000D01*
G75*
G02*
X152310000Y-57355000I0J-155000D01*
G01*
X152310000Y-57780000D01*
G75*
G02*
X152155000Y-57935000I-155000J0D01*
G01*
X151845000Y-57935000D01*
G75*
G02*
X151690000Y-57780000I0J155000D01*
G01*
X151690000Y-57355000D01*
G75*
G02*
X151845000Y-57200000I155000J0D01*
G01*
G37*
G36*
G01*
X153345000Y-57200000D02*
X153655000Y-57200000D01*
G75*
G02*
X153810000Y-57355000I0J-155000D01*
G01*
X153810000Y-57780000D01*
G75*
G02*
X153655000Y-57935000I-155000J0D01*
G01*
X153345000Y-57935000D01*
G75*
G02*
X153190000Y-57780000I0J155000D01*
G01*
X153190000Y-57355000D01*
G75*
G02*
X153345000Y-57200000I155000J0D01*
G01*
G37*
G36*
G01*
X153345000Y-56065000D02*
X153655000Y-56065000D01*
G75*
G02*
X153810000Y-56220000I0J-155000D01*
G01*
X153810000Y-56645000D01*
G75*
G02*
X153655000Y-56800000I-155000J0D01*
G01*
X153345000Y-56800000D01*
G75*
G02*
X153190000Y-56645000I0J155000D01*
G01*
X153190000Y-56220000D01*
G75*
G02*
X153345000Y-56065000I155000J0D01*
G01*
G37*
G36*
G01*
X145545000Y-42485000D02*
X145235000Y-42485000D01*
G75*
G02*
X145080000Y-42330000I0J155000D01*
G01*
X145080000Y-41905000D01*
G75*
G02*
X145235000Y-41750000I155000J0D01*
G01*
X145545000Y-41750000D01*
G75*
G02*
X145700000Y-41905000I0J-155000D01*
G01*
X145700000Y-42330000D01*
G75*
G02*
X145545000Y-42485000I-155000J0D01*
G01*
G37*
G36*
G01*
X145545000Y-41350000D02*
X145235000Y-41350000D01*
G75*
G02*
X145080000Y-41195000I0J155000D01*
G01*
X145080000Y-40770000D01*
G75*
G02*
X145235000Y-40615000I155000J0D01*
G01*
X145545000Y-40615000D01*
G75*
G02*
X145700000Y-40770000I0J-155000D01*
G01*
X145700000Y-41195000D01*
G75*
G02*
X145545000Y-41350000I-155000J0D01*
G01*
G37*
D24*
X82450000Y-68850000D03*
X82450000Y-72150000D03*
G36*
G01*
X95350000Y-90237500D02*
X95350000Y-89762500D01*
G75*
G02*
X95587500Y-89525000I237500J0D01*
G01*
X96162500Y-89525000D01*
G75*
G02*
X96400000Y-89762500I0J-237500D01*
G01*
X96400000Y-90237500D01*
G75*
G02*
X96162500Y-90475000I-237500J0D01*
G01*
X95587500Y-90475000D01*
G75*
G02*
X95350000Y-90237500I0J237500D01*
G01*
G37*
G36*
G01*
X93600000Y-90237500D02*
X93600000Y-89762500D01*
G75*
G02*
X93837500Y-89525000I237500J0D01*
G01*
X94412500Y-89525000D01*
G75*
G02*
X94650000Y-89762500I0J-237500D01*
G01*
X94650000Y-90237500D01*
G75*
G02*
X94412500Y-90475000I-237500J0D01*
G01*
X93837500Y-90475000D01*
G75*
G02*
X93600000Y-90237500I0J237500D01*
G01*
G37*
G36*
G01*
X93600000Y-93737500D02*
X93600000Y-93262500D01*
G75*
G02*
X93837500Y-93025000I237500J0D01*
G01*
X94412500Y-93025000D01*
G75*
G02*
X94650000Y-93262500I0J-237500D01*
G01*
X94650000Y-93737500D01*
G75*
G02*
X94412500Y-93975000I-237500J0D01*
G01*
X93837500Y-93975000D01*
G75*
G02*
X93600000Y-93737500I0J237500D01*
G01*
G37*
G36*
G01*
X95350000Y-93737500D02*
X95350000Y-93262500D01*
G75*
G02*
X95587500Y-93025000I237500J0D01*
G01*
X96162500Y-93025000D01*
G75*
G02*
X96400000Y-93262500I0J-237500D01*
G01*
X96400000Y-93737500D01*
G75*
G02*
X96162500Y-93975000I-237500J0D01*
G01*
X95587500Y-93975000D01*
G75*
G02*
X95350000Y-93737500I0J237500D01*
G01*
G37*
G36*
G01*
X116752500Y-38480000D02*
X117227500Y-38480000D01*
G75*
G02*
X117465000Y-38717500I0J-237500D01*
G01*
X117465000Y-39292500D01*
G75*
G02*
X117227500Y-39530000I-237500J0D01*
G01*
X116752500Y-39530000D01*
G75*
G02*
X116515000Y-39292500I0J237500D01*
G01*
X116515000Y-38717500D01*
G75*
G02*
X116752500Y-38480000I237500J0D01*
G01*
G37*
G36*
G01*
X116752500Y-40230000D02*
X117227500Y-40230000D01*
G75*
G02*
X117465000Y-40467500I0J-237500D01*
G01*
X117465000Y-41042500D01*
G75*
G02*
X117227500Y-41280000I-237500J0D01*
G01*
X116752500Y-41280000D01*
G75*
G02*
X116515000Y-41042500I0J237500D01*
G01*
X116515000Y-40467500D01*
G75*
G02*
X116752500Y-40230000I237500J0D01*
G01*
G37*
X119000000Y-107850000D03*
X119000000Y-111150000D03*
G36*
G01*
X84025000Y-80875000D02*
X84025000Y-82125000D01*
G75*
G02*
X83775000Y-82375000I-250000J0D01*
G01*
X83025000Y-82375000D01*
G75*
G02*
X82775000Y-82125000I0J250000D01*
G01*
X82775000Y-80875000D01*
G75*
G02*
X83025000Y-80625000I250000J0D01*
G01*
X83775000Y-80625000D01*
G75*
G02*
X84025000Y-80875000I0J-250000D01*
G01*
G37*
G36*
G01*
X81225000Y-80875000D02*
X81225000Y-82125000D01*
G75*
G02*
X80975000Y-82375000I-250000J0D01*
G01*
X80225000Y-82375000D01*
G75*
G02*
X79975000Y-82125000I0J250000D01*
G01*
X79975000Y-80875000D01*
G75*
G02*
X80225000Y-80625000I250000J0D01*
G01*
X80975000Y-80625000D01*
G75*
G02*
X81225000Y-80875000I0J-250000D01*
G01*
G37*
D22*
X82280419Y-117719581D03*
X80000000Y-116775000D03*
X77719581Y-117719581D03*
X76775000Y-120000000D03*
X77719581Y-122280419D03*
X80000000Y-123225000D03*
X82280419Y-122280419D03*
X83225000Y-120000000D03*
D23*
X80000000Y-120000000D03*
X160000000Y-120000000D03*
D22*
X163225000Y-120000000D03*
X162280419Y-122280419D03*
X160000000Y-123225000D03*
X157719581Y-122280419D03*
X156775000Y-120000000D03*
X157719581Y-117719581D03*
X160000000Y-116775000D03*
X162280419Y-117719581D03*
X162280419Y-37719581D03*
X160000000Y-36775000D03*
X157719581Y-37719581D03*
X156775000Y-40000000D03*
X157719581Y-42280419D03*
X160000000Y-43225000D03*
X162280419Y-42280419D03*
X163225000Y-40000000D03*
D23*
X160000000Y-40000000D03*
X118000000Y-120000000D03*
D22*
X121225000Y-120000000D03*
X120280419Y-122280419D03*
X118000000Y-123225000D03*
X115719581Y-122280419D03*
X114775000Y-120000000D03*
X115719581Y-117719581D03*
X118000000Y-116775000D03*
X120280419Y-117719581D03*
X144280419Y-117719581D03*
X142000000Y-116775000D03*
X139719581Y-117719581D03*
X138775000Y-120000000D03*
X139719581Y-122280419D03*
X142000000Y-123225000D03*
X144280419Y-122280419D03*
X145225000Y-120000000D03*
D23*
X142000000Y-120000000D03*
D25*
X75000000Y-67000000D03*
D26*
X75000000Y-69540000D03*
D27*
X75000000Y-77000000D03*
D28*
X75000000Y-80500000D03*
D26*
X139540000Y-35000000D03*
D25*
X137000000Y-35000000D03*
D27*
X165000000Y-93000000D03*
D28*
X165000000Y-89500000D03*
D25*
X162500000Y-55840000D03*
D26*
X165040000Y-55840000D03*
X162500000Y-58380000D03*
X165040000Y-58380000D03*
X162500000Y-60920000D03*
X165040000Y-60920000D03*
X162500000Y-63460000D03*
X165040000Y-63460000D03*
X162500000Y-66000000D03*
X165040000Y-66000000D03*
D25*
X165000000Y-71500000D03*
D26*
X165000000Y-74040000D03*
D29*
X75500000Y-49000000D03*
D30*
X75500000Y-54000000D03*
X75500000Y-59000000D03*
D25*
X92500000Y-35000000D03*
D26*
X89960000Y-35000000D03*
X87420000Y-35000000D03*
D28*
X132000000Y-125000000D03*
D27*
X128500000Y-125000000D03*
D26*
X74975000Y-90490000D03*
D25*
X74975000Y-87950000D03*
G36*
G01*
X90900000Y-89762500D02*
X90900000Y-90237500D01*
G75*
G02*
X90662500Y-90475000I-237500J0D01*
G01*
X90162500Y-90475000D01*
G75*
G02*
X89925000Y-90237500I0J237500D01*
G01*
X89925000Y-89762500D01*
G75*
G02*
X90162500Y-89525000I237500J0D01*
G01*
X90662500Y-89525000D01*
G75*
G02*
X90900000Y-89762500I0J-237500D01*
G01*
G37*
G36*
G01*
X89075000Y-89762500D02*
X89075000Y-90237500D01*
G75*
G02*
X88837500Y-90475000I-237500J0D01*
G01*
X88337500Y-90475000D01*
G75*
G02*
X88100000Y-90237500I0J237500D01*
G01*
X88100000Y-89762500D01*
G75*
G02*
X88337500Y-89525000I237500J0D01*
G01*
X88837500Y-89525000D01*
G75*
G02*
X89075000Y-89762500I0J-237500D01*
G01*
G37*
G36*
G01*
X136840000Y-38045000D02*
X137160000Y-38045000D01*
G75*
G02*
X137320000Y-38205000I0J-160000D01*
G01*
X137320000Y-38600000D01*
G75*
G02*
X137160000Y-38760000I-160000J0D01*
G01*
X136840000Y-38760000D01*
G75*
G02*
X136680000Y-38600000I0J160000D01*
G01*
X136680000Y-38205000D01*
G75*
G02*
X136840000Y-38045000I160000J0D01*
G01*
G37*
G36*
G01*
X136840000Y-39240000D02*
X137160000Y-39240000D01*
G75*
G02*
X137320000Y-39400000I0J-160000D01*
G01*
X137320000Y-39795000D01*
G75*
G02*
X137160000Y-39955000I-160000J0D01*
G01*
X136840000Y-39955000D01*
G75*
G02*
X136680000Y-39795000I0J160000D01*
G01*
X136680000Y-39400000D01*
G75*
G02*
X136840000Y-39240000I160000J0D01*
G01*
G37*
G36*
G01*
X139380000Y-39240000D02*
X139700000Y-39240000D01*
G75*
G02*
X139860000Y-39400000I0J-160000D01*
G01*
X139860000Y-39795000D01*
G75*
G02*
X139700000Y-39955000I-160000J0D01*
G01*
X139380000Y-39955000D01*
G75*
G02*
X139220000Y-39795000I0J160000D01*
G01*
X139220000Y-39400000D01*
G75*
G02*
X139380000Y-39240000I160000J0D01*
G01*
G37*
G36*
G01*
X139380000Y-38045000D02*
X139700000Y-38045000D01*
G75*
G02*
X139860000Y-38205000I0J-160000D01*
G01*
X139860000Y-38600000D01*
G75*
G02*
X139700000Y-38760000I-160000J0D01*
G01*
X139380000Y-38760000D01*
G75*
G02*
X139220000Y-38600000I0J160000D01*
G01*
X139220000Y-38205000D01*
G75*
G02*
X139380000Y-38045000I160000J0D01*
G01*
G37*
G36*
G01*
X161660000Y-71855000D02*
X161340000Y-71855000D01*
G75*
G02*
X161180000Y-71695000I0J160000D01*
G01*
X161180000Y-71300000D01*
G75*
G02*
X161340000Y-71140000I160000J0D01*
G01*
X161660000Y-71140000D01*
G75*
G02*
X161820000Y-71300000I0J-160000D01*
G01*
X161820000Y-71695000D01*
G75*
G02*
X161660000Y-71855000I-160000J0D01*
G01*
G37*
G36*
G01*
X161660000Y-70660000D02*
X161340000Y-70660000D01*
G75*
G02*
X161180000Y-70500000I0J160000D01*
G01*
X161180000Y-70105000D01*
G75*
G02*
X161340000Y-69945000I160000J0D01*
G01*
X161660000Y-69945000D01*
G75*
G02*
X161820000Y-70105000I0J-160000D01*
G01*
X161820000Y-70500000D01*
G75*
G02*
X161660000Y-70660000I-160000J0D01*
G01*
G37*
G36*
G01*
X161340000Y-73685000D02*
X161660000Y-73685000D01*
G75*
G02*
X161820000Y-73845000I0J-160000D01*
G01*
X161820000Y-74240000D01*
G75*
G02*
X161660000Y-74400000I-160000J0D01*
G01*
X161340000Y-74400000D01*
G75*
G02*
X161180000Y-74240000I0J160000D01*
G01*
X161180000Y-73845000D01*
G75*
G02*
X161340000Y-73685000I160000J0D01*
G01*
G37*
G36*
G01*
X161340000Y-74880000D02*
X161660000Y-74880000D01*
G75*
G02*
X161820000Y-75040000I0J-160000D01*
G01*
X161820000Y-75435000D01*
G75*
G02*
X161660000Y-75595000I-160000J0D01*
G01*
X161340000Y-75595000D01*
G75*
G02*
X161180000Y-75435000I0J160000D01*
G01*
X161180000Y-75040000D01*
G75*
G02*
X161340000Y-74880000I160000J0D01*
G01*
G37*
G36*
G01*
X113160000Y-78955000D02*
X112840000Y-78955000D01*
G75*
G02*
X112680000Y-78795000I0J160000D01*
G01*
X112680000Y-78400000D01*
G75*
G02*
X112840000Y-78240000I160000J0D01*
G01*
X113160000Y-78240000D01*
G75*
G02*
X113320000Y-78400000I0J-160000D01*
G01*
X113320000Y-78795000D01*
G75*
G02*
X113160000Y-78955000I-160000J0D01*
G01*
G37*
G36*
G01*
X113160000Y-77760000D02*
X112840000Y-77760000D01*
G75*
G02*
X112680000Y-77600000I0J160000D01*
G01*
X112680000Y-77205000D01*
G75*
G02*
X112840000Y-77045000I160000J0D01*
G01*
X113160000Y-77045000D01*
G75*
G02*
X113320000Y-77205000I0J-160000D01*
G01*
X113320000Y-77600000D01*
G75*
G02*
X113160000Y-77760000I-160000J0D01*
G01*
G37*
G36*
G01*
X92145000Y-39160000D02*
X92145000Y-38840000D01*
G75*
G02*
X92305000Y-38680000I160000J0D01*
G01*
X92700000Y-38680000D01*
G75*
G02*
X92860000Y-38840000I0J-160000D01*
G01*
X92860000Y-39160000D01*
G75*
G02*
X92700000Y-39320000I-160000J0D01*
G01*
X92305000Y-39320000D01*
G75*
G02*
X92145000Y-39160000I0J160000D01*
G01*
G37*
G36*
G01*
X93340000Y-39160000D02*
X93340000Y-38840000D01*
G75*
G02*
X93500000Y-38680000I160000J0D01*
G01*
X93895000Y-38680000D01*
G75*
G02*
X94055000Y-38840000I0J-160000D01*
G01*
X94055000Y-39160000D01*
G75*
G02*
X93895000Y-39320000I-160000J0D01*
G01*
X93500000Y-39320000D01*
G75*
G02*
X93340000Y-39160000I0J160000D01*
G01*
G37*
G36*
G01*
X112840000Y-65545000D02*
X113160000Y-65545000D01*
G75*
G02*
X113320000Y-65705000I0J-160000D01*
G01*
X113320000Y-66100000D01*
G75*
G02*
X113160000Y-66260000I-160000J0D01*
G01*
X112840000Y-66260000D01*
G75*
G02*
X112680000Y-66100000I0J160000D01*
G01*
X112680000Y-65705000D01*
G75*
G02*
X112840000Y-65545000I160000J0D01*
G01*
G37*
G36*
G01*
X112840000Y-66740000D02*
X113160000Y-66740000D01*
G75*
G02*
X113320000Y-66900000I0J-160000D01*
G01*
X113320000Y-67295000D01*
G75*
G02*
X113160000Y-67455000I-160000J0D01*
G01*
X112840000Y-67455000D01*
G75*
G02*
X112680000Y-67295000I0J160000D01*
G01*
X112680000Y-66900000D01*
G75*
G02*
X112840000Y-66740000I160000J0D01*
G01*
G37*
G36*
G01*
X89120000Y-38840000D02*
X89120000Y-39160000D01*
G75*
G02*
X88960000Y-39320000I-160000J0D01*
G01*
X88565000Y-39320000D01*
G75*
G02*
X88405000Y-39160000I0J160000D01*
G01*
X88405000Y-38840000D01*
G75*
G02*
X88565000Y-38680000I160000J0D01*
G01*
X88960000Y-38680000D01*
G75*
G02*
X89120000Y-38840000I0J-160000D01*
G01*
G37*
G36*
G01*
X90315000Y-38840000D02*
X90315000Y-39160000D01*
G75*
G02*
X90155000Y-39320000I-160000J0D01*
G01*
X89760000Y-39320000D01*
G75*
G02*
X89600000Y-39160000I0J160000D01*
G01*
X89600000Y-38840000D01*
G75*
G02*
X89760000Y-38680000I160000J0D01*
G01*
X90155000Y-38680000D01*
G75*
G02*
X90315000Y-38840000I0J-160000D01*
G01*
G37*
G36*
G01*
X147340000Y-59545000D02*
X147660000Y-59545000D01*
G75*
G02*
X147820000Y-59705000I0J-160000D01*
G01*
X147820000Y-60100000D01*
G75*
G02*
X147660000Y-60260000I-160000J0D01*
G01*
X147340000Y-60260000D01*
G75*
G02*
X147180000Y-60100000I0J160000D01*
G01*
X147180000Y-59705000D01*
G75*
G02*
X147340000Y-59545000I160000J0D01*
G01*
G37*
G36*
G01*
X147340000Y-60740000D02*
X147660000Y-60740000D01*
G75*
G02*
X147820000Y-60900000I0J-160000D01*
G01*
X147820000Y-61295000D01*
G75*
G02*
X147660000Y-61455000I-160000J0D01*
G01*
X147340000Y-61455000D01*
G75*
G02*
X147180000Y-61295000I0J160000D01*
G01*
X147180000Y-60900000D01*
G75*
G02*
X147340000Y-60740000I160000J0D01*
G01*
G37*
G36*
G01*
X145840000Y-60740000D02*
X146160000Y-60740000D01*
G75*
G02*
X146320000Y-60900000I0J-160000D01*
G01*
X146320000Y-61295000D01*
G75*
G02*
X146160000Y-61455000I-160000J0D01*
G01*
X145840000Y-61455000D01*
G75*
G02*
X145680000Y-61295000I0J160000D01*
G01*
X145680000Y-60900000D01*
G75*
G02*
X145840000Y-60740000I160000J0D01*
G01*
G37*
G36*
G01*
X145840000Y-59545000D02*
X146160000Y-59545000D01*
G75*
G02*
X146320000Y-59705000I0J-160000D01*
G01*
X146320000Y-60100000D01*
G75*
G02*
X146160000Y-60260000I-160000J0D01*
G01*
X145840000Y-60260000D01*
G75*
G02*
X145680000Y-60100000I0J160000D01*
G01*
X145680000Y-59705000D01*
G75*
G02*
X145840000Y-59545000I160000J0D01*
G01*
G37*
G36*
G01*
X89925000Y-93737500D02*
X89925000Y-93262500D01*
G75*
G02*
X90162500Y-93025000I237500J0D01*
G01*
X90662500Y-93025000D01*
G75*
G02*
X90900000Y-93262500I0J-237500D01*
G01*
X90900000Y-93737500D01*
G75*
G02*
X90662500Y-93975000I-237500J0D01*
G01*
X90162500Y-93975000D01*
G75*
G02*
X89925000Y-93737500I0J237500D01*
G01*
G37*
G36*
G01*
X88100000Y-93737500D02*
X88100000Y-93262500D01*
G75*
G02*
X88337500Y-93025000I237500J0D01*
G01*
X88837500Y-93025000D01*
G75*
G02*
X89075000Y-93262500I0J-237500D01*
G01*
X89075000Y-93737500D01*
G75*
G02*
X88837500Y-93975000I-237500J0D01*
G01*
X88337500Y-93975000D01*
G75*
G02*
X88100000Y-93737500I0J237500D01*
G01*
G37*
G36*
G01*
X89925000Y-97237500D02*
X89925000Y-96762500D01*
G75*
G02*
X90162500Y-96525000I237500J0D01*
G01*
X90662500Y-96525000D01*
G75*
G02*
X90900000Y-96762500I0J-237500D01*
G01*
X90900000Y-97237500D01*
G75*
G02*
X90662500Y-97475000I-237500J0D01*
G01*
X90162500Y-97475000D01*
G75*
G02*
X89925000Y-97237500I0J237500D01*
G01*
G37*
G36*
G01*
X88100000Y-97237500D02*
X88100000Y-96762500D01*
G75*
G02*
X88337500Y-96525000I237500J0D01*
G01*
X88837500Y-96525000D01*
G75*
G02*
X89075000Y-96762500I0J-237500D01*
G01*
X89075000Y-97237500D01*
G75*
G02*
X88837500Y-97475000I-237500J0D01*
G01*
X88337500Y-97475000D01*
G75*
G02*
X88100000Y-97237500I0J237500D01*
G01*
G37*
G36*
G01*
X148480000Y-67505000D02*
X148160000Y-67505000D01*
G75*
G02*
X148000000Y-67345000I0J160000D01*
G01*
X148000000Y-66950000D01*
G75*
G02*
X148160000Y-66790000I160000J0D01*
G01*
X148480000Y-66790000D01*
G75*
G02*
X148640000Y-66950000I0J-160000D01*
G01*
X148640000Y-67345000D01*
G75*
G02*
X148480000Y-67505000I-160000J0D01*
G01*
G37*
G36*
G01*
X148480000Y-66310000D02*
X148160000Y-66310000D01*
G75*
G02*
X148000000Y-66150000I0J160000D01*
G01*
X148000000Y-65755000D01*
G75*
G02*
X148160000Y-65595000I160000J0D01*
G01*
X148480000Y-65595000D01*
G75*
G02*
X148640000Y-65755000I0J-160000D01*
G01*
X148640000Y-66150000D01*
G75*
G02*
X148480000Y-66310000I-160000J0D01*
G01*
G37*
G36*
G01*
X150140000Y-66310000D02*
X149820000Y-66310000D01*
G75*
G02*
X149660000Y-66150000I0J160000D01*
G01*
X149660000Y-65755000D01*
G75*
G02*
X149820000Y-65595000I160000J0D01*
G01*
X150140000Y-65595000D01*
G75*
G02*
X150300000Y-65755000I0J-160000D01*
G01*
X150300000Y-66150000D01*
G75*
G02*
X150140000Y-66310000I-160000J0D01*
G01*
G37*
G36*
G01*
X150140000Y-67505000D02*
X149820000Y-67505000D01*
G75*
G02*
X149660000Y-67345000I0J160000D01*
G01*
X149660000Y-66950000D01*
G75*
G02*
X149820000Y-66790000I160000J0D01*
G01*
X150140000Y-66790000D01*
G75*
G02*
X150300000Y-66950000I0J-160000D01*
G01*
X150300000Y-67345000D01*
G75*
G02*
X150140000Y-67505000I-160000J0D01*
G01*
G37*
G36*
G01*
X148150000Y-81195000D02*
X148470000Y-81195000D01*
G75*
G02*
X148630000Y-81355000I0J-160000D01*
G01*
X148630000Y-81750000D01*
G75*
G02*
X148470000Y-81910000I-160000J0D01*
G01*
X148150000Y-81910000D01*
G75*
G02*
X147990000Y-81750000I0J160000D01*
G01*
X147990000Y-81355000D01*
G75*
G02*
X148150000Y-81195000I160000J0D01*
G01*
G37*
G36*
G01*
X148150000Y-82390000D02*
X148470000Y-82390000D01*
G75*
G02*
X148630000Y-82550000I0J-160000D01*
G01*
X148630000Y-82945000D01*
G75*
G02*
X148470000Y-83105000I-160000J0D01*
G01*
X148150000Y-83105000D01*
G75*
G02*
X147990000Y-82945000I0J160000D01*
G01*
X147990000Y-82550000D01*
G75*
G02*
X148150000Y-82390000I160000J0D01*
G01*
G37*
G36*
G01*
X146840000Y-66310000D02*
X146520000Y-66310000D01*
G75*
G02*
X146360000Y-66150000I0J160000D01*
G01*
X146360000Y-65755000D01*
G75*
G02*
X146520000Y-65595000I160000J0D01*
G01*
X146840000Y-65595000D01*
G75*
G02*
X147000000Y-65755000I0J-160000D01*
G01*
X147000000Y-66150000D01*
G75*
G02*
X146840000Y-66310000I-160000J0D01*
G01*
G37*
G36*
G01*
X146840000Y-67505000D02*
X146520000Y-67505000D01*
G75*
G02*
X146360000Y-67345000I0J160000D01*
G01*
X146360000Y-66950000D01*
G75*
G02*
X146520000Y-66790000I160000J0D01*
G01*
X146840000Y-66790000D01*
G75*
G02*
X147000000Y-66950000I0J-160000D01*
G01*
X147000000Y-67345000D01*
G75*
G02*
X146840000Y-67505000I-160000J0D01*
G01*
G37*
G36*
G01*
X78340000Y-69180000D02*
X78660000Y-69180000D01*
G75*
G02*
X78820000Y-69340000I0J-160000D01*
G01*
X78820000Y-69735000D01*
G75*
G02*
X78660000Y-69895000I-160000J0D01*
G01*
X78340000Y-69895000D01*
G75*
G02*
X78180000Y-69735000I0J160000D01*
G01*
X78180000Y-69340000D01*
G75*
G02*
X78340000Y-69180000I160000J0D01*
G01*
G37*
G36*
G01*
X78340000Y-67985000D02*
X78660000Y-67985000D01*
G75*
G02*
X78820000Y-68145000I0J-160000D01*
G01*
X78820000Y-68540000D01*
G75*
G02*
X78660000Y-68700000I-160000J0D01*
G01*
X78340000Y-68700000D01*
G75*
G02*
X78180000Y-68540000I0J160000D01*
G01*
X78180000Y-68145000D01*
G75*
G02*
X78340000Y-67985000I160000J0D01*
G01*
G37*
G36*
G01*
X78340000Y-65240000D02*
X78660000Y-65240000D01*
G75*
G02*
X78820000Y-65400000I0J-160000D01*
G01*
X78820000Y-65795000D01*
G75*
G02*
X78660000Y-65955000I-160000J0D01*
G01*
X78340000Y-65955000D01*
G75*
G02*
X78180000Y-65795000I0J160000D01*
G01*
X78180000Y-65400000D01*
G75*
G02*
X78340000Y-65240000I160000J0D01*
G01*
G37*
G36*
G01*
X78340000Y-64045000D02*
X78660000Y-64045000D01*
G75*
G02*
X78820000Y-64205000I0J-160000D01*
G01*
X78820000Y-64600000D01*
G75*
G02*
X78660000Y-64760000I-160000J0D01*
G01*
X78340000Y-64760000D01*
G75*
G02*
X78180000Y-64600000I0J160000D01*
G01*
X78180000Y-64205000D01*
G75*
G02*
X78340000Y-64045000I160000J0D01*
G01*
G37*
G36*
G01*
X119660000Y-48640000D02*
X119660000Y-48960000D01*
G75*
G02*
X119500000Y-49120000I-160000J0D01*
G01*
X119105000Y-49120000D01*
G75*
G02*
X118945000Y-48960000I0J160000D01*
G01*
X118945000Y-48640000D01*
G75*
G02*
X119105000Y-48480000I160000J0D01*
G01*
X119500000Y-48480000D01*
G75*
G02*
X119660000Y-48640000I0J-160000D01*
G01*
G37*
G36*
G01*
X120855000Y-48640000D02*
X120855000Y-48960000D01*
G75*
G02*
X120695000Y-49120000I-160000J0D01*
G01*
X120300000Y-49120000D01*
G75*
G02*
X120140000Y-48960000I0J160000D01*
G01*
X120140000Y-48640000D01*
G75*
G02*
X120300000Y-48480000I160000J0D01*
G01*
X120695000Y-48480000D01*
G75*
G02*
X120855000Y-48640000I0J-160000D01*
G01*
G37*
G36*
G01*
X121485000Y-56660000D02*
X121485000Y-56340000D01*
G75*
G02*
X121645000Y-56180000I160000J0D01*
G01*
X122040000Y-56180000D01*
G75*
G02*
X122200000Y-56340000I0J-160000D01*
G01*
X122200000Y-56660000D01*
G75*
G02*
X122040000Y-56820000I-160000J0D01*
G01*
X121645000Y-56820000D01*
G75*
G02*
X121485000Y-56660000I0J160000D01*
G01*
G37*
G36*
G01*
X122680000Y-56660000D02*
X122680000Y-56340000D01*
G75*
G02*
X122840000Y-56180000I160000J0D01*
G01*
X123235000Y-56180000D01*
G75*
G02*
X123395000Y-56340000I0J-160000D01*
G01*
X123395000Y-56660000D01*
G75*
G02*
X123235000Y-56820000I-160000J0D01*
G01*
X122840000Y-56820000D01*
G75*
G02*
X122680000Y-56660000I0J160000D01*
G01*
G37*
G36*
G01*
X93340000Y-40910000D02*
X93340000Y-40590000D01*
G75*
G02*
X93500000Y-40430000I160000J0D01*
G01*
X93895000Y-40430000D01*
G75*
G02*
X94055000Y-40590000I0J-160000D01*
G01*
X94055000Y-40910000D01*
G75*
G02*
X93895000Y-41070000I-160000J0D01*
G01*
X93500000Y-41070000D01*
G75*
G02*
X93340000Y-40910000I0J160000D01*
G01*
G37*
G36*
G01*
X92145000Y-40910000D02*
X92145000Y-40590000D01*
G75*
G02*
X92305000Y-40430000I160000J0D01*
G01*
X92700000Y-40430000D01*
G75*
G02*
X92860000Y-40590000I0J-160000D01*
G01*
X92860000Y-40910000D01*
G75*
G02*
X92700000Y-41070000I-160000J0D01*
G01*
X92305000Y-41070000D01*
G75*
G02*
X92145000Y-40910000I0J160000D01*
G01*
G37*
G36*
G01*
X90315000Y-40590000D02*
X90315000Y-40910000D01*
G75*
G02*
X90155000Y-41070000I-160000J0D01*
G01*
X89760000Y-41070000D01*
G75*
G02*
X89600000Y-40910000I0J160000D01*
G01*
X89600000Y-40590000D01*
G75*
G02*
X89760000Y-40430000I160000J0D01*
G01*
X90155000Y-40430000D01*
G75*
G02*
X90315000Y-40590000I0J-160000D01*
G01*
G37*
G36*
G01*
X89120000Y-40590000D02*
X89120000Y-40910000D01*
G75*
G02*
X88960000Y-41070000I-160000J0D01*
G01*
X88565000Y-41070000D01*
G75*
G02*
X88405000Y-40910000I0J160000D01*
G01*
X88405000Y-40590000D01*
G75*
G02*
X88565000Y-40430000I160000J0D01*
G01*
X88960000Y-40430000D01*
G75*
G02*
X89120000Y-40590000I0J-160000D01*
G01*
G37*
G36*
G01*
X116752500Y-34480000D02*
X117227500Y-34480000D01*
G75*
G02*
X117465000Y-34717500I0J-237500D01*
G01*
X117465000Y-35217500D01*
G75*
G02*
X117227500Y-35455000I-237500J0D01*
G01*
X116752500Y-35455000D01*
G75*
G02*
X116515000Y-35217500I0J237500D01*
G01*
X116515000Y-34717500D01*
G75*
G02*
X116752500Y-34480000I237500J0D01*
G01*
G37*
G36*
G01*
X116752500Y-36305000D02*
X117227500Y-36305000D01*
G75*
G02*
X117465000Y-36542500I0J-237500D01*
G01*
X117465000Y-37042500D01*
G75*
G02*
X117227500Y-37280000I-237500J0D01*
G01*
X116752500Y-37280000D01*
G75*
G02*
X116515000Y-37042500I0J237500D01*
G01*
X116515000Y-36542500D01*
G75*
G02*
X116752500Y-36305000I237500J0D01*
G01*
G37*
D31*
X92450000Y-73850000D03*
D32*
X92450000Y-67550000D03*
X90150000Y-67550000D03*
X94750000Y-67550000D03*
G36*
G01*
X149435000Y-70650000D02*
X149735000Y-70650000D01*
G75*
G02*
X149885000Y-70800000I0J-150000D01*
G01*
X149885000Y-72100000D01*
G75*
G02*
X149735000Y-72250000I-150000J0D01*
G01*
X149435000Y-72250000D01*
G75*
G02*
X149285000Y-72100000I0J150000D01*
G01*
X149285000Y-70800000D01*
G75*
G02*
X149435000Y-70650000I150000J0D01*
G01*
G37*
G36*
G01*
X148165000Y-70650000D02*
X148465000Y-70650000D01*
G75*
G02*
X148615000Y-70800000I0J-150000D01*
G01*
X148615000Y-72100000D01*
G75*
G02*
X148465000Y-72250000I-150000J0D01*
G01*
X148165000Y-72250000D01*
G75*
G02*
X148015000Y-72100000I0J150000D01*
G01*
X148015000Y-70800000D01*
G75*
G02*
X148165000Y-70650000I150000J0D01*
G01*
G37*
G36*
G01*
X146895000Y-70650000D02*
X147195000Y-70650000D01*
G75*
G02*
X147345000Y-70800000I0J-150000D01*
G01*
X147345000Y-72100000D01*
G75*
G02*
X147195000Y-72250000I-150000J0D01*
G01*
X146895000Y-72250000D01*
G75*
G02*
X146745000Y-72100000I0J150000D01*
G01*
X146745000Y-70800000D01*
G75*
G02*
X146895000Y-70650000I150000J0D01*
G01*
G37*
G36*
G01*
X145625000Y-70650000D02*
X145925000Y-70650000D01*
G75*
G02*
X146075000Y-70800000I0J-150000D01*
G01*
X146075000Y-72100000D01*
G75*
G02*
X145925000Y-72250000I-150000J0D01*
G01*
X145625000Y-72250000D01*
G75*
G02*
X145475000Y-72100000I0J150000D01*
G01*
X145475000Y-70800000D01*
G75*
G02*
X145625000Y-70650000I150000J0D01*
G01*
G37*
G36*
G01*
X145625000Y-77850000D02*
X145925000Y-77850000D01*
G75*
G02*
X146075000Y-78000000I0J-150000D01*
G01*
X146075000Y-79300000D01*
G75*
G02*
X145925000Y-79450000I-150000J0D01*
G01*
X145625000Y-79450000D01*
G75*
G02*
X145475000Y-79300000I0J150000D01*
G01*
X145475000Y-78000000D01*
G75*
G02*
X145625000Y-77850000I150000J0D01*
G01*
G37*
G36*
G01*
X146895000Y-77850000D02*
X147195000Y-77850000D01*
G75*
G02*
X147345000Y-78000000I0J-150000D01*
G01*
X147345000Y-79300000D01*
G75*
G02*
X147195000Y-79450000I-150000J0D01*
G01*
X146895000Y-79450000D01*
G75*
G02*
X146745000Y-79300000I0J150000D01*
G01*
X146745000Y-78000000D01*
G75*
G02*
X146895000Y-77850000I150000J0D01*
G01*
G37*
G36*
G01*
X148165000Y-77850000D02*
X148465000Y-77850000D01*
G75*
G02*
X148615000Y-78000000I0J-150000D01*
G01*
X148615000Y-79300000D01*
G75*
G02*
X148465000Y-79450000I-150000J0D01*
G01*
X148165000Y-79450000D01*
G75*
G02*
X148015000Y-79300000I0J150000D01*
G01*
X148015000Y-78000000D01*
G75*
G02*
X148165000Y-77850000I150000J0D01*
G01*
G37*
G36*
G01*
X149435000Y-77850000D02*
X149735000Y-77850000D01*
G75*
G02*
X149885000Y-78000000I0J-150000D01*
G01*
X149885000Y-79300000D01*
G75*
G02*
X149735000Y-79450000I-150000J0D01*
G01*
X149435000Y-79450000D01*
G75*
G02*
X149285000Y-79300000I0J150000D01*
G01*
X149285000Y-78000000D01*
G75*
G02*
X149435000Y-77850000I150000J0D01*
G01*
G37*
G36*
G01*
X119600000Y-70825000D02*
X119600000Y-70675000D01*
G75*
G02*
X119675000Y-70600000I75000J0D01*
G01*
X121000000Y-70600000D01*
G75*
G02*
X121075000Y-70675000I0J-75000D01*
G01*
X121075000Y-70825000D01*
G75*
G02*
X121000000Y-70900000I-75000J0D01*
G01*
X119675000Y-70900000D01*
G75*
G02*
X119600000Y-70825000I0J75000D01*
G01*
G37*
G36*
G01*
X119600000Y-71325000D02*
X119600000Y-71175000D01*
G75*
G02*
X119675000Y-71100000I75000J0D01*
G01*
X121000000Y-71100000D01*
G75*
G02*
X121075000Y-71175000I0J-75000D01*
G01*
X121075000Y-71325000D01*
G75*
G02*
X121000000Y-71400000I-75000J0D01*
G01*
X119675000Y-71400000D01*
G75*
G02*
X119600000Y-71325000I0J75000D01*
G01*
G37*
G36*
G01*
X119600000Y-71825000D02*
X119600000Y-71675000D01*
G75*
G02*
X119675000Y-71600000I75000J0D01*
G01*
X121000000Y-71600000D01*
G75*
G02*
X121075000Y-71675000I0J-75000D01*
G01*
X121075000Y-71825000D01*
G75*
G02*
X121000000Y-71900000I-75000J0D01*
G01*
X119675000Y-71900000D01*
G75*
G02*
X119600000Y-71825000I0J75000D01*
G01*
G37*
G36*
G01*
X119600000Y-72325000D02*
X119600000Y-72175000D01*
G75*
G02*
X119675000Y-72100000I75000J0D01*
G01*
X121000000Y-72100000D01*
G75*
G02*
X121075000Y-72175000I0J-75000D01*
G01*
X121075000Y-72325000D01*
G75*
G02*
X121000000Y-72400000I-75000J0D01*
G01*
X119675000Y-72400000D01*
G75*
G02*
X119600000Y-72325000I0J75000D01*
G01*
G37*
G36*
G01*
X119600000Y-72825000D02*
X119600000Y-72675000D01*
G75*
G02*
X119675000Y-72600000I75000J0D01*
G01*
X121000000Y-72600000D01*
G75*
G02*
X121075000Y-72675000I0J-75000D01*
G01*
X121075000Y-72825000D01*
G75*
G02*
X121000000Y-72900000I-75000J0D01*
G01*
X119675000Y-72900000D01*
G75*
G02*
X119600000Y-72825000I0J75000D01*
G01*
G37*
G36*
G01*
X119600000Y-73325000D02*
X119600000Y-73175000D01*
G75*
G02*
X119675000Y-73100000I75000J0D01*
G01*
X121000000Y-73100000D01*
G75*
G02*
X121075000Y-73175000I0J-75000D01*
G01*
X121075000Y-73325000D01*
G75*
G02*
X121000000Y-73400000I-75000J0D01*
G01*
X119675000Y-73400000D01*
G75*
G02*
X119600000Y-73325000I0J75000D01*
G01*
G37*
G36*
G01*
X119600000Y-73825000D02*
X119600000Y-73675000D01*
G75*
G02*
X119675000Y-73600000I75000J0D01*
G01*
X121000000Y-73600000D01*
G75*
G02*
X121075000Y-73675000I0J-75000D01*
G01*
X121075000Y-73825000D01*
G75*
G02*
X121000000Y-73900000I-75000J0D01*
G01*
X119675000Y-73900000D01*
G75*
G02*
X119600000Y-73825000I0J75000D01*
G01*
G37*
G36*
G01*
X119600000Y-74325000D02*
X119600000Y-74175000D01*
G75*
G02*
X119675000Y-74100000I75000J0D01*
G01*
X121000000Y-74100000D01*
G75*
G02*
X121075000Y-74175000I0J-75000D01*
G01*
X121075000Y-74325000D01*
G75*
G02*
X121000000Y-74400000I-75000J0D01*
G01*
X119675000Y-74400000D01*
G75*
G02*
X119600000Y-74325000I0J75000D01*
G01*
G37*
G36*
G01*
X119600000Y-74825000D02*
X119600000Y-74675000D01*
G75*
G02*
X119675000Y-74600000I75000J0D01*
G01*
X121000000Y-74600000D01*
G75*
G02*
X121075000Y-74675000I0J-75000D01*
G01*
X121075000Y-74825000D01*
G75*
G02*
X121000000Y-74900000I-75000J0D01*
G01*
X119675000Y-74900000D01*
G75*
G02*
X119600000Y-74825000I0J75000D01*
G01*
G37*
G36*
G01*
X119600000Y-75325000D02*
X119600000Y-75175000D01*
G75*
G02*
X119675000Y-75100000I75000J0D01*
G01*
X121000000Y-75100000D01*
G75*
G02*
X121075000Y-75175000I0J-75000D01*
G01*
X121075000Y-75325000D01*
G75*
G02*
X121000000Y-75400000I-75000J0D01*
G01*
X119675000Y-75400000D01*
G75*
G02*
X119600000Y-75325000I0J75000D01*
G01*
G37*
G36*
G01*
X119600000Y-75825000D02*
X119600000Y-75675000D01*
G75*
G02*
X119675000Y-75600000I75000J0D01*
G01*
X121000000Y-75600000D01*
G75*
G02*
X121075000Y-75675000I0J-75000D01*
G01*
X121075000Y-75825000D01*
G75*
G02*
X121000000Y-75900000I-75000J0D01*
G01*
X119675000Y-75900000D01*
G75*
G02*
X119600000Y-75825000I0J75000D01*
G01*
G37*
G36*
G01*
X119600000Y-76325000D02*
X119600000Y-76175000D01*
G75*
G02*
X119675000Y-76100000I75000J0D01*
G01*
X121000000Y-76100000D01*
G75*
G02*
X121075000Y-76175000I0J-75000D01*
G01*
X121075000Y-76325000D01*
G75*
G02*
X121000000Y-76400000I-75000J0D01*
G01*
X119675000Y-76400000D01*
G75*
G02*
X119600000Y-76325000I0J75000D01*
G01*
G37*
G36*
G01*
X121600000Y-78325000D02*
X121600000Y-77000000D01*
G75*
G02*
X121675000Y-76925000I75000J0D01*
G01*
X121825000Y-76925000D01*
G75*
G02*
X121900000Y-77000000I0J-75000D01*
G01*
X121900000Y-78325000D01*
G75*
G02*
X121825000Y-78400000I-75000J0D01*
G01*
X121675000Y-78400000D01*
G75*
G02*
X121600000Y-78325000I0J75000D01*
G01*
G37*
G36*
G01*
X122100000Y-78325000D02*
X122100000Y-77000000D01*
G75*
G02*
X122175000Y-76925000I75000J0D01*
G01*
X122325000Y-76925000D01*
G75*
G02*
X122400000Y-77000000I0J-75000D01*
G01*
X122400000Y-78325000D01*
G75*
G02*
X122325000Y-78400000I-75000J0D01*
G01*
X122175000Y-78400000D01*
G75*
G02*
X122100000Y-78325000I0J75000D01*
G01*
G37*
G36*
G01*
X122600000Y-78325000D02*
X122600000Y-77000000D01*
G75*
G02*
X122675000Y-76925000I75000J0D01*
G01*
X122825000Y-76925000D01*
G75*
G02*
X122900000Y-77000000I0J-75000D01*
G01*
X122900000Y-78325000D01*
G75*
G02*
X122825000Y-78400000I-75000J0D01*
G01*
X122675000Y-78400000D01*
G75*
G02*
X122600000Y-78325000I0J75000D01*
G01*
G37*
G36*
G01*
X123100000Y-78325000D02*
X123100000Y-77000000D01*
G75*
G02*
X123175000Y-76925000I75000J0D01*
G01*
X123325000Y-76925000D01*
G75*
G02*
X123400000Y-77000000I0J-75000D01*
G01*
X123400000Y-78325000D01*
G75*
G02*
X123325000Y-78400000I-75000J0D01*
G01*
X123175000Y-78400000D01*
G75*
G02*
X123100000Y-78325000I0J75000D01*
G01*
G37*
G36*
G01*
X123600000Y-78325000D02*
X123600000Y-77000000D01*
G75*
G02*
X123675000Y-76925000I75000J0D01*
G01*
X123825000Y-76925000D01*
G75*
G02*
X123900000Y-77000000I0J-75000D01*
G01*
X123900000Y-78325000D01*
G75*
G02*
X123825000Y-78400000I-75000J0D01*
G01*
X123675000Y-78400000D01*
G75*
G02*
X123600000Y-78325000I0J75000D01*
G01*
G37*
G36*
G01*
X124100000Y-78325000D02*
X124100000Y-77000000D01*
G75*
G02*
X124175000Y-76925000I75000J0D01*
G01*
X124325000Y-76925000D01*
G75*
G02*
X124400000Y-77000000I0J-75000D01*
G01*
X124400000Y-78325000D01*
G75*
G02*
X124325000Y-78400000I-75000J0D01*
G01*
X124175000Y-78400000D01*
G75*
G02*
X124100000Y-78325000I0J75000D01*
G01*
G37*
G36*
G01*
X124600000Y-78325000D02*
X124600000Y-77000000D01*
G75*
G02*
X124675000Y-76925000I75000J0D01*
G01*
X124825000Y-76925000D01*
G75*
G02*
X124900000Y-77000000I0J-75000D01*
G01*
X124900000Y-78325000D01*
G75*
G02*
X124825000Y-78400000I-75000J0D01*
G01*
X124675000Y-78400000D01*
G75*
G02*
X124600000Y-78325000I0J75000D01*
G01*
G37*
G36*
G01*
X125100000Y-78325000D02*
X125100000Y-77000000D01*
G75*
G02*
X125175000Y-76925000I75000J0D01*
G01*
X125325000Y-76925000D01*
G75*
G02*
X125400000Y-77000000I0J-75000D01*
G01*
X125400000Y-78325000D01*
G75*
G02*
X125325000Y-78400000I-75000J0D01*
G01*
X125175000Y-78400000D01*
G75*
G02*
X125100000Y-78325000I0J75000D01*
G01*
G37*
G36*
G01*
X125600000Y-78325000D02*
X125600000Y-77000000D01*
G75*
G02*
X125675000Y-76925000I75000J0D01*
G01*
X125825000Y-76925000D01*
G75*
G02*
X125900000Y-77000000I0J-75000D01*
G01*
X125900000Y-78325000D01*
G75*
G02*
X125825000Y-78400000I-75000J0D01*
G01*
X125675000Y-78400000D01*
G75*
G02*
X125600000Y-78325000I0J75000D01*
G01*
G37*
G36*
G01*
X126100000Y-78325000D02*
X126100000Y-77000000D01*
G75*
G02*
X126175000Y-76925000I75000J0D01*
G01*
X126325000Y-76925000D01*
G75*
G02*
X126400000Y-77000000I0J-75000D01*
G01*
X126400000Y-78325000D01*
G75*
G02*
X126325000Y-78400000I-75000J0D01*
G01*
X126175000Y-78400000D01*
G75*
G02*
X126100000Y-78325000I0J75000D01*
G01*
G37*
G36*
G01*
X126600000Y-78325000D02*
X126600000Y-77000000D01*
G75*
G02*
X126675000Y-76925000I75000J0D01*
G01*
X126825000Y-76925000D01*
G75*
G02*
X126900000Y-77000000I0J-75000D01*
G01*
X126900000Y-78325000D01*
G75*
G02*
X126825000Y-78400000I-75000J0D01*
G01*
X126675000Y-78400000D01*
G75*
G02*
X126600000Y-78325000I0J75000D01*
G01*
G37*
G36*
G01*
X127100000Y-78325000D02*
X127100000Y-77000000D01*
G75*
G02*
X127175000Y-76925000I75000J0D01*
G01*
X127325000Y-76925000D01*
G75*
G02*
X127400000Y-77000000I0J-75000D01*
G01*
X127400000Y-78325000D01*
G75*
G02*
X127325000Y-78400000I-75000J0D01*
G01*
X127175000Y-78400000D01*
G75*
G02*
X127100000Y-78325000I0J75000D01*
G01*
G37*
G36*
G01*
X127925000Y-76325000D02*
X127925000Y-76175000D01*
G75*
G02*
X128000000Y-76100000I75000J0D01*
G01*
X129325000Y-76100000D01*
G75*
G02*
X129400000Y-76175000I0J-75000D01*
G01*
X129400000Y-76325000D01*
G75*
G02*
X129325000Y-76400000I-75000J0D01*
G01*
X128000000Y-76400000D01*
G75*
G02*
X127925000Y-76325000I0J75000D01*
G01*
G37*
G36*
G01*
X127925000Y-75825000D02*
X127925000Y-75675000D01*
G75*
G02*
X128000000Y-75600000I75000J0D01*
G01*
X129325000Y-75600000D01*
G75*
G02*
X129400000Y-75675000I0J-75000D01*
G01*
X129400000Y-75825000D01*
G75*
G02*
X129325000Y-75900000I-75000J0D01*
G01*
X128000000Y-75900000D01*
G75*
G02*
X127925000Y-75825000I0J75000D01*
G01*
G37*
G36*
G01*
X127925000Y-75325000D02*
X127925000Y-75175000D01*
G75*
G02*
X128000000Y-75100000I75000J0D01*
G01*
X129325000Y-75100000D01*
G75*
G02*
X129400000Y-75175000I0J-75000D01*
G01*
X129400000Y-75325000D01*
G75*
G02*
X129325000Y-75400000I-75000J0D01*
G01*
X128000000Y-75400000D01*
G75*
G02*
X127925000Y-75325000I0J75000D01*
G01*
G37*
G36*
G01*
X127925000Y-74825000D02*
X127925000Y-74675000D01*
G75*
G02*
X128000000Y-74600000I75000J0D01*
G01*
X129325000Y-74600000D01*
G75*
G02*
X129400000Y-74675000I0J-75000D01*
G01*
X129400000Y-74825000D01*
G75*
G02*
X129325000Y-74900000I-75000J0D01*
G01*
X128000000Y-74900000D01*
G75*
G02*
X127925000Y-74825000I0J75000D01*
G01*
G37*
G36*
G01*
X127925000Y-74325000D02*
X127925000Y-74175000D01*
G75*
G02*
X128000000Y-74100000I75000J0D01*
G01*
X129325000Y-74100000D01*
G75*
G02*
X129400000Y-74175000I0J-75000D01*
G01*
X129400000Y-74325000D01*
G75*
G02*
X129325000Y-74400000I-75000J0D01*
G01*
X128000000Y-74400000D01*
G75*
G02*
X127925000Y-74325000I0J75000D01*
G01*
G37*
G36*
G01*
X127925000Y-73825000D02*
X127925000Y-73675000D01*
G75*
G02*
X128000000Y-73600000I75000J0D01*
G01*
X129325000Y-73600000D01*
G75*
G02*
X129400000Y-73675000I0J-75000D01*
G01*
X129400000Y-73825000D01*
G75*
G02*
X129325000Y-73900000I-75000J0D01*
G01*
X128000000Y-73900000D01*
G75*
G02*
X127925000Y-73825000I0J75000D01*
G01*
G37*
G36*
G01*
X127925000Y-73325000D02*
X127925000Y-73175000D01*
G75*
G02*
X128000000Y-73100000I75000J0D01*
G01*
X129325000Y-73100000D01*
G75*
G02*
X129400000Y-73175000I0J-75000D01*
G01*
X129400000Y-73325000D01*
G75*
G02*
X129325000Y-73400000I-75000J0D01*
G01*
X128000000Y-73400000D01*
G75*
G02*
X127925000Y-73325000I0J75000D01*
G01*
G37*
G36*
G01*
X127925000Y-72825000D02*
X127925000Y-72675000D01*
G75*
G02*
X128000000Y-72600000I75000J0D01*
G01*
X129325000Y-72600000D01*
G75*
G02*
X129400000Y-72675000I0J-75000D01*
G01*
X129400000Y-72825000D01*
G75*
G02*
X129325000Y-72900000I-75000J0D01*
G01*
X128000000Y-72900000D01*
G75*
G02*
X127925000Y-72825000I0J75000D01*
G01*
G37*
G36*
G01*
X127925000Y-72325000D02*
X127925000Y-72175000D01*
G75*
G02*
X128000000Y-72100000I75000J0D01*
G01*
X129325000Y-72100000D01*
G75*
G02*
X129400000Y-72175000I0J-75000D01*
G01*
X129400000Y-72325000D01*
G75*
G02*
X129325000Y-72400000I-75000J0D01*
G01*
X128000000Y-72400000D01*
G75*
G02*
X127925000Y-72325000I0J75000D01*
G01*
G37*
G36*
G01*
X127925000Y-71825000D02*
X127925000Y-71675000D01*
G75*
G02*
X128000000Y-71600000I75000J0D01*
G01*
X129325000Y-71600000D01*
G75*
G02*
X129400000Y-71675000I0J-75000D01*
G01*
X129400000Y-71825000D01*
G75*
G02*
X129325000Y-71900000I-75000J0D01*
G01*
X128000000Y-71900000D01*
G75*
G02*
X127925000Y-71825000I0J75000D01*
G01*
G37*
G36*
G01*
X127925000Y-71325000D02*
X127925000Y-71175000D01*
G75*
G02*
X128000000Y-71100000I75000J0D01*
G01*
X129325000Y-71100000D01*
G75*
G02*
X129400000Y-71175000I0J-75000D01*
G01*
X129400000Y-71325000D01*
G75*
G02*
X129325000Y-71400000I-75000J0D01*
G01*
X128000000Y-71400000D01*
G75*
G02*
X127925000Y-71325000I0J75000D01*
G01*
G37*
G36*
G01*
X127925000Y-70825000D02*
X127925000Y-70675000D01*
G75*
G02*
X128000000Y-70600000I75000J0D01*
G01*
X129325000Y-70600000D01*
G75*
G02*
X129400000Y-70675000I0J-75000D01*
G01*
X129400000Y-70825000D01*
G75*
G02*
X129325000Y-70900000I-75000J0D01*
G01*
X128000000Y-70900000D01*
G75*
G02*
X127925000Y-70825000I0J75000D01*
G01*
G37*
G36*
G01*
X127100000Y-70000000D02*
X127100000Y-68675000D01*
G75*
G02*
X127175000Y-68600000I75000J0D01*
G01*
X127325000Y-68600000D01*
G75*
G02*
X127400000Y-68675000I0J-75000D01*
G01*
X127400000Y-70000000D01*
G75*
G02*
X127325000Y-70075000I-75000J0D01*
G01*
X127175000Y-70075000D01*
G75*
G02*
X127100000Y-70000000I0J75000D01*
G01*
G37*
G36*
G01*
X126600000Y-70000000D02*
X126600000Y-68675000D01*
G75*
G02*
X126675000Y-68600000I75000J0D01*
G01*
X126825000Y-68600000D01*
G75*
G02*
X126900000Y-68675000I0J-75000D01*
G01*
X126900000Y-70000000D01*
G75*
G02*
X126825000Y-70075000I-75000J0D01*
G01*
X126675000Y-70075000D01*
G75*
G02*
X126600000Y-70000000I0J75000D01*
G01*
G37*
G36*
G01*
X126100000Y-70000000D02*
X126100000Y-68675000D01*
G75*
G02*
X126175000Y-68600000I75000J0D01*
G01*
X126325000Y-68600000D01*
G75*
G02*
X126400000Y-68675000I0J-75000D01*
G01*
X126400000Y-70000000D01*
G75*
G02*
X126325000Y-70075000I-75000J0D01*
G01*
X126175000Y-70075000D01*
G75*
G02*
X126100000Y-70000000I0J75000D01*
G01*
G37*
G36*
G01*
X125600000Y-70000000D02*
X125600000Y-68675000D01*
G75*
G02*
X125675000Y-68600000I75000J0D01*
G01*
X125825000Y-68600000D01*
G75*
G02*
X125900000Y-68675000I0J-75000D01*
G01*
X125900000Y-70000000D01*
G75*
G02*
X125825000Y-70075000I-75000J0D01*
G01*
X125675000Y-70075000D01*
G75*
G02*
X125600000Y-70000000I0J75000D01*
G01*
G37*
G36*
G01*
X125100000Y-70000000D02*
X125100000Y-68675000D01*
G75*
G02*
X125175000Y-68600000I75000J0D01*
G01*
X125325000Y-68600000D01*
G75*
G02*
X125400000Y-68675000I0J-75000D01*
G01*
X125400000Y-70000000D01*
G75*
G02*
X125325000Y-70075000I-75000J0D01*
G01*
X125175000Y-70075000D01*
G75*
G02*
X125100000Y-70000000I0J75000D01*
G01*
G37*
G36*
G01*
X124600000Y-70000000D02*
X124600000Y-68675000D01*
G75*
G02*
X124675000Y-68600000I75000J0D01*
G01*
X124825000Y-68600000D01*
G75*
G02*
X124900000Y-68675000I0J-75000D01*
G01*
X124900000Y-70000000D01*
G75*
G02*
X124825000Y-70075000I-75000J0D01*
G01*
X124675000Y-70075000D01*
G75*
G02*
X124600000Y-70000000I0J75000D01*
G01*
G37*
G36*
G01*
X124100000Y-70000000D02*
X124100000Y-68675000D01*
G75*
G02*
X124175000Y-68600000I75000J0D01*
G01*
X124325000Y-68600000D01*
G75*
G02*
X124400000Y-68675000I0J-75000D01*
G01*
X124400000Y-70000000D01*
G75*
G02*
X124325000Y-70075000I-75000J0D01*
G01*
X124175000Y-70075000D01*
G75*
G02*
X124100000Y-70000000I0J75000D01*
G01*
G37*
G36*
G01*
X123600000Y-70000000D02*
X123600000Y-68675000D01*
G75*
G02*
X123675000Y-68600000I75000J0D01*
G01*
X123825000Y-68600000D01*
G75*
G02*
X123900000Y-68675000I0J-75000D01*
G01*
X123900000Y-70000000D01*
G75*
G02*
X123825000Y-70075000I-75000J0D01*
G01*
X123675000Y-70075000D01*
G75*
G02*
X123600000Y-70000000I0J75000D01*
G01*
G37*
G36*
G01*
X123100000Y-70000000D02*
X123100000Y-68675000D01*
G75*
G02*
X123175000Y-68600000I75000J0D01*
G01*
X123325000Y-68600000D01*
G75*
G02*
X123400000Y-68675000I0J-75000D01*
G01*
X123400000Y-70000000D01*
G75*
G02*
X123325000Y-70075000I-75000J0D01*
G01*
X123175000Y-70075000D01*
G75*
G02*
X123100000Y-70000000I0J75000D01*
G01*
G37*
G36*
G01*
X122600000Y-70000000D02*
X122600000Y-68675000D01*
G75*
G02*
X122675000Y-68600000I75000J0D01*
G01*
X122825000Y-68600000D01*
G75*
G02*
X122900000Y-68675000I0J-75000D01*
G01*
X122900000Y-70000000D01*
G75*
G02*
X122825000Y-70075000I-75000J0D01*
G01*
X122675000Y-70075000D01*
G75*
G02*
X122600000Y-70000000I0J75000D01*
G01*
G37*
G36*
G01*
X122100000Y-70000000D02*
X122100000Y-68675000D01*
G75*
G02*
X122175000Y-68600000I75000J0D01*
G01*
X122325000Y-68600000D01*
G75*
G02*
X122400000Y-68675000I0J-75000D01*
G01*
X122400000Y-70000000D01*
G75*
G02*
X122325000Y-70075000I-75000J0D01*
G01*
X122175000Y-70075000D01*
G75*
G02*
X122100000Y-70000000I0J75000D01*
G01*
G37*
G36*
G01*
X121600000Y-70000000D02*
X121600000Y-68675000D01*
G75*
G02*
X121675000Y-68600000I75000J0D01*
G01*
X121825000Y-68600000D01*
G75*
G02*
X121900000Y-68675000I0J-75000D01*
G01*
X121900000Y-70000000D01*
G75*
G02*
X121825000Y-70075000I-75000J0D01*
G01*
X121675000Y-70075000D01*
G75*
G02*
X121600000Y-70000000I0J75000D01*
G01*
G37*
D33*
X127450000Y-42400000D03*
X126500000Y-42400000D03*
X125550000Y-42400000D03*
X125550000Y-44600000D03*
X127450000Y-44600000D03*
X126500000Y-44600000D03*
G36*
G01*
X132625000Y-45325000D02*
X132625000Y-45175000D01*
G75*
G02*
X132700000Y-45100000I75000J0D01*
G01*
X133400000Y-45100000D01*
G75*
G02*
X133475000Y-45175000I0J-75000D01*
G01*
X133475000Y-45325000D01*
G75*
G02*
X133400000Y-45400000I-75000J0D01*
G01*
X132700000Y-45400000D01*
G75*
G02*
X132625000Y-45325000I0J75000D01*
G01*
G37*
G36*
G01*
X132625000Y-45825000D02*
X132625000Y-45675000D01*
G75*
G02*
X132700000Y-45600000I75000J0D01*
G01*
X133400000Y-45600000D01*
G75*
G02*
X133475000Y-45675000I0J-75000D01*
G01*
X133475000Y-45825000D01*
G75*
G02*
X133400000Y-45900000I-75000J0D01*
G01*
X132700000Y-45900000D01*
G75*
G02*
X132625000Y-45825000I0J75000D01*
G01*
G37*
G36*
G01*
X132625000Y-46325000D02*
X132625000Y-46175000D01*
G75*
G02*
X132700000Y-46100000I75000J0D01*
G01*
X133400000Y-46100000D01*
G75*
G02*
X133475000Y-46175000I0J-75000D01*
G01*
X133475000Y-46325000D01*
G75*
G02*
X133400000Y-46400000I-75000J0D01*
G01*
X132700000Y-46400000D01*
G75*
G02*
X132625000Y-46325000I0J75000D01*
G01*
G37*
G36*
G01*
X132625000Y-46825000D02*
X132625000Y-46675000D01*
G75*
G02*
X132700000Y-46600000I75000J0D01*
G01*
X133400000Y-46600000D01*
G75*
G02*
X133475000Y-46675000I0J-75000D01*
G01*
X133475000Y-46825000D01*
G75*
G02*
X133400000Y-46900000I-75000J0D01*
G01*
X132700000Y-46900000D01*
G75*
G02*
X132625000Y-46825000I0J75000D01*
G01*
G37*
G36*
G01*
X132625000Y-47325000D02*
X132625000Y-47175000D01*
G75*
G02*
X132700000Y-47100000I75000J0D01*
G01*
X133400000Y-47100000D01*
G75*
G02*
X133475000Y-47175000I0J-75000D01*
G01*
X133475000Y-47325000D01*
G75*
G02*
X133400000Y-47400000I-75000J0D01*
G01*
X132700000Y-47400000D01*
G75*
G02*
X132625000Y-47325000I0J75000D01*
G01*
G37*
G36*
G01*
X132625000Y-47825000D02*
X132625000Y-47675000D01*
G75*
G02*
X132700000Y-47600000I75000J0D01*
G01*
X133400000Y-47600000D01*
G75*
G02*
X133475000Y-47675000I0J-75000D01*
G01*
X133475000Y-47825000D01*
G75*
G02*
X133400000Y-47900000I-75000J0D01*
G01*
X132700000Y-47900000D01*
G75*
G02*
X132625000Y-47825000I0J75000D01*
G01*
G37*
G36*
G01*
X133825000Y-48875000D02*
X133675000Y-48875000D01*
G75*
G02*
X133600000Y-48800000I0J75000D01*
G01*
X133600000Y-48100000D01*
G75*
G02*
X133675000Y-48025000I75000J0D01*
G01*
X133825000Y-48025000D01*
G75*
G02*
X133900000Y-48100000I0J-75000D01*
G01*
X133900000Y-48800000D01*
G75*
G02*
X133825000Y-48875000I-75000J0D01*
G01*
G37*
G36*
G01*
X134325000Y-48875000D02*
X134175000Y-48875000D01*
G75*
G02*
X134100000Y-48800000I0J75000D01*
G01*
X134100000Y-48100000D01*
G75*
G02*
X134175000Y-48025000I75000J0D01*
G01*
X134325000Y-48025000D01*
G75*
G02*
X134400000Y-48100000I0J-75000D01*
G01*
X134400000Y-48800000D01*
G75*
G02*
X134325000Y-48875000I-75000J0D01*
G01*
G37*
G36*
G01*
X134825000Y-48875000D02*
X134675000Y-48875000D01*
G75*
G02*
X134600000Y-48800000I0J75000D01*
G01*
X134600000Y-48100000D01*
G75*
G02*
X134675000Y-48025000I75000J0D01*
G01*
X134825000Y-48025000D01*
G75*
G02*
X134900000Y-48100000I0J-75000D01*
G01*
X134900000Y-48800000D01*
G75*
G02*
X134825000Y-48875000I-75000J0D01*
G01*
G37*
G36*
G01*
X135325000Y-48875000D02*
X135175000Y-48875000D01*
G75*
G02*
X135100000Y-48800000I0J75000D01*
G01*
X135100000Y-48100000D01*
G75*
G02*
X135175000Y-48025000I75000J0D01*
G01*
X135325000Y-48025000D01*
G75*
G02*
X135400000Y-48100000I0J-75000D01*
G01*
X135400000Y-48800000D01*
G75*
G02*
X135325000Y-48875000I-75000J0D01*
G01*
G37*
G36*
G01*
X135825000Y-48875000D02*
X135675000Y-48875000D01*
G75*
G02*
X135600000Y-48800000I0J75000D01*
G01*
X135600000Y-48100000D01*
G75*
G02*
X135675000Y-48025000I75000J0D01*
G01*
X135825000Y-48025000D01*
G75*
G02*
X135900000Y-48100000I0J-75000D01*
G01*
X135900000Y-48800000D01*
G75*
G02*
X135825000Y-48875000I-75000J0D01*
G01*
G37*
G36*
G01*
X136325000Y-48875000D02*
X136175000Y-48875000D01*
G75*
G02*
X136100000Y-48800000I0J75000D01*
G01*
X136100000Y-48100000D01*
G75*
G02*
X136175000Y-48025000I75000J0D01*
G01*
X136325000Y-48025000D01*
G75*
G02*
X136400000Y-48100000I0J-75000D01*
G01*
X136400000Y-48800000D01*
G75*
G02*
X136325000Y-48875000I-75000J0D01*
G01*
G37*
G36*
G01*
X136525000Y-47825000D02*
X136525000Y-47675000D01*
G75*
G02*
X136600000Y-47600000I75000J0D01*
G01*
X137300000Y-47600000D01*
G75*
G02*
X137375000Y-47675000I0J-75000D01*
G01*
X137375000Y-47825000D01*
G75*
G02*
X137300000Y-47900000I-75000J0D01*
G01*
X136600000Y-47900000D01*
G75*
G02*
X136525000Y-47825000I0J75000D01*
G01*
G37*
G36*
G01*
X136525000Y-47325000D02*
X136525000Y-47175000D01*
G75*
G02*
X136600000Y-47100000I75000J0D01*
G01*
X137300000Y-47100000D01*
G75*
G02*
X137375000Y-47175000I0J-75000D01*
G01*
X137375000Y-47325000D01*
G75*
G02*
X137300000Y-47400000I-75000J0D01*
G01*
X136600000Y-47400000D01*
G75*
G02*
X136525000Y-47325000I0J75000D01*
G01*
G37*
G36*
G01*
X136525000Y-46825000D02*
X136525000Y-46675000D01*
G75*
G02*
X136600000Y-46600000I75000J0D01*
G01*
X137300000Y-46600000D01*
G75*
G02*
X137375000Y-46675000I0J-75000D01*
G01*
X137375000Y-46825000D01*
G75*
G02*
X137300000Y-46900000I-75000J0D01*
G01*
X136600000Y-46900000D01*
G75*
G02*
X136525000Y-46825000I0J75000D01*
G01*
G37*
G36*
G01*
X136525000Y-46325000D02*
X136525000Y-46175000D01*
G75*
G02*
X136600000Y-46100000I75000J0D01*
G01*
X137300000Y-46100000D01*
G75*
G02*
X137375000Y-46175000I0J-75000D01*
G01*
X137375000Y-46325000D01*
G75*
G02*
X137300000Y-46400000I-75000J0D01*
G01*
X136600000Y-46400000D01*
G75*
G02*
X136525000Y-46325000I0J75000D01*
G01*
G37*
G36*
G01*
X136525000Y-45825000D02*
X136525000Y-45675000D01*
G75*
G02*
X136600000Y-45600000I75000J0D01*
G01*
X137300000Y-45600000D01*
G75*
G02*
X137375000Y-45675000I0J-75000D01*
G01*
X137375000Y-45825000D01*
G75*
G02*
X137300000Y-45900000I-75000J0D01*
G01*
X136600000Y-45900000D01*
G75*
G02*
X136525000Y-45825000I0J75000D01*
G01*
G37*
G36*
G01*
X136525000Y-45325000D02*
X136525000Y-45175000D01*
G75*
G02*
X136600000Y-45100000I75000J0D01*
G01*
X137300000Y-45100000D01*
G75*
G02*
X137375000Y-45175000I0J-75000D01*
G01*
X137375000Y-45325000D01*
G75*
G02*
X137300000Y-45400000I-75000J0D01*
G01*
X136600000Y-45400000D01*
G75*
G02*
X136525000Y-45325000I0J75000D01*
G01*
G37*
G36*
G01*
X136325000Y-44975000D02*
X136175000Y-44975000D01*
G75*
G02*
X136100000Y-44900000I0J75000D01*
G01*
X136100000Y-44200000D01*
G75*
G02*
X136175000Y-44125000I75000J0D01*
G01*
X136325000Y-44125000D01*
G75*
G02*
X136400000Y-44200000I0J-75000D01*
G01*
X136400000Y-44900000D01*
G75*
G02*
X136325000Y-44975000I-75000J0D01*
G01*
G37*
G36*
G01*
X135825000Y-44975000D02*
X135675000Y-44975000D01*
G75*
G02*
X135600000Y-44900000I0J75000D01*
G01*
X135600000Y-44200000D01*
G75*
G02*
X135675000Y-44125000I75000J0D01*
G01*
X135825000Y-44125000D01*
G75*
G02*
X135900000Y-44200000I0J-75000D01*
G01*
X135900000Y-44900000D01*
G75*
G02*
X135825000Y-44975000I-75000J0D01*
G01*
G37*
G36*
G01*
X135325000Y-44975000D02*
X135175000Y-44975000D01*
G75*
G02*
X135100000Y-44900000I0J75000D01*
G01*
X135100000Y-44200000D01*
G75*
G02*
X135175000Y-44125000I75000J0D01*
G01*
X135325000Y-44125000D01*
G75*
G02*
X135400000Y-44200000I0J-75000D01*
G01*
X135400000Y-44900000D01*
G75*
G02*
X135325000Y-44975000I-75000J0D01*
G01*
G37*
G36*
G01*
X134825000Y-44975000D02*
X134675000Y-44975000D01*
G75*
G02*
X134600000Y-44900000I0J75000D01*
G01*
X134600000Y-44200000D01*
G75*
G02*
X134675000Y-44125000I75000J0D01*
G01*
X134825000Y-44125000D01*
G75*
G02*
X134900000Y-44200000I0J-75000D01*
G01*
X134900000Y-44900000D01*
G75*
G02*
X134825000Y-44975000I-75000J0D01*
G01*
G37*
G36*
G01*
X134325000Y-44975000D02*
X134175000Y-44975000D01*
G75*
G02*
X134100000Y-44900000I0J75000D01*
G01*
X134100000Y-44200000D01*
G75*
G02*
X134175000Y-44125000I75000J0D01*
G01*
X134325000Y-44125000D01*
G75*
G02*
X134400000Y-44200000I0J-75000D01*
G01*
X134400000Y-44900000D01*
G75*
G02*
X134325000Y-44975000I-75000J0D01*
G01*
G37*
G36*
G01*
X133825000Y-44975000D02*
X133675000Y-44975000D01*
G75*
G02*
X133600000Y-44900000I0J75000D01*
G01*
X133600000Y-44200000D01*
G75*
G02*
X133675000Y-44125000I75000J0D01*
G01*
X133825000Y-44125000D01*
G75*
G02*
X133900000Y-44200000I0J-75000D01*
G01*
X133900000Y-44900000D01*
G75*
G02*
X133825000Y-44975000I-75000J0D01*
G01*
G37*
D34*
X97250000Y-49750000D03*
X110750000Y-49750000D03*
X110750000Y-48250000D03*
X110750000Y-46750000D03*
X110750000Y-45250000D03*
X110750000Y-43750000D03*
X110750000Y-42250000D03*
X110750000Y-40750000D03*
X110750000Y-39250000D03*
X97250000Y-39250000D03*
X97250000Y-40750000D03*
X97250000Y-42250000D03*
X97250000Y-43750000D03*
X97250000Y-45250000D03*
X97250000Y-46750000D03*
X97250000Y-48250000D03*
D35*
X129000000Y-97000000D03*
D36*
X131540000Y-89380000D03*
X131540000Y-97000000D03*
X129000000Y-89380000D03*
G36*
G01*
X145275000Y-55150000D02*
X144925000Y-55150000D01*
G75*
G02*
X144750000Y-54975000I0J175000D01*
G01*
X144750000Y-53525000D01*
G75*
G02*
X144925000Y-53350000I175000J0D01*
G01*
X145275000Y-53350000D01*
G75*
G02*
X145450000Y-53525000I0J-175000D01*
G01*
X145450000Y-54975000D01*
G75*
G02*
X145275000Y-55150000I-175000J0D01*
G01*
G37*
G36*
G01*
X146400000Y-55150000D02*
X146000000Y-55150000D01*
G75*
G02*
X145800000Y-54950000I0J200000D01*
G01*
X145800000Y-53550000D01*
G75*
G02*
X146000000Y-53350000I200000J0D01*
G01*
X146400000Y-53350000D01*
G75*
G02*
X146600000Y-53550000I0J-200000D01*
G01*
X146600000Y-54950000D01*
G75*
G02*
X146400000Y-55150000I-200000J0D01*
G01*
G37*
G36*
G01*
X147500000Y-55150000D02*
X147100000Y-55150000D01*
G75*
G02*
X146900000Y-54950000I0J200000D01*
G01*
X146900000Y-53550000D01*
G75*
G02*
X147100000Y-53350000I200000J0D01*
G01*
X147500000Y-53350000D01*
G75*
G02*
X147700000Y-53550000I0J-200000D01*
G01*
X147700000Y-54950000D01*
G75*
G02*
X147500000Y-55150000I-200000J0D01*
G01*
G37*
G36*
G01*
X148600000Y-55150000D02*
X148200000Y-55150000D01*
G75*
G02*
X148000000Y-54950000I0J200000D01*
G01*
X148000000Y-53550000D01*
G75*
G02*
X148200000Y-53350000I200000J0D01*
G01*
X148600000Y-53350000D01*
G75*
G02*
X148800000Y-53550000I0J-200000D01*
G01*
X148800000Y-54950000D01*
G75*
G02*
X148600000Y-55150000I-200000J0D01*
G01*
G37*
G36*
G01*
X149700000Y-55150000D02*
X149300000Y-55150000D01*
G75*
G02*
X149100000Y-54950000I0J200000D01*
G01*
X149100000Y-53550000D01*
G75*
G02*
X149300000Y-53350000I200000J0D01*
G01*
X149700000Y-53350000D01*
G75*
G02*
X149900000Y-53550000I0J-200000D01*
G01*
X149900000Y-54950000D01*
G75*
G02*
X149700000Y-55150000I-200000J0D01*
G01*
G37*
G36*
G01*
X150800000Y-55150000D02*
X150400000Y-55150000D01*
G75*
G02*
X150200000Y-54950000I0J200000D01*
G01*
X150200000Y-53550000D01*
G75*
G02*
X150400000Y-53350000I200000J0D01*
G01*
X150800000Y-53350000D01*
G75*
G02*
X151000000Y-53550000I0J-200000D01*
G01*
X151000000Y-54950000D01*
G75*
G02*
X150800000Y-55150000I-200000J0D01*
G01*
G37*
G36*
G01*
X151900000Y-55150000D02*
X151500000Y-55150000D01*
G75*
G02*
X151300000Y-54950000I0J200000D01*
G01*
X151300000Y-53550000D01*
G75*
G02*
X151500000Y-53350000I200000J0D01*
G01*
X151900000Y-53350000D01*
G75*
G02*
X152100000Y-53550000I0J-200000D01*
G01*
X152100000Y-54950000D01*
G75*
G02*
X151900000Y-55150000I-200000J0D01*
G01*
G37*
G36*
G01*
X153000000Y-55150000D02*
X152600000Y-55150000D01*
G75*
G02*
X152400000Y-54950000I0J200000D01*
G01*
X152400000Y-53550000D01*
G75*
G02*
X152600000Y-53350000I200000J0D01*
G01*
X153000000Y-53350000D01*
G75*
G02*
X153200000Y-53550000I0J-200000D01*
G01*
X153200000Y-54950000D01*
G75*
G02*
X153000000Y-55150000I-200000J0D01*
G01*
G37*
G36*
G01*
X154075000Y-55150000D02*
X153725000Y-55150000D01*
G75*
G02*
X153550000Y-54975000I0J175000D01*
G01*
X153550000Y-53525000D01*
G75*
G02*
X153725000Y-53350000I175000J0D01*
G01*
X154075000Y-53350000D01*
G75*
G02*
X154250000Y-53525000I0J-175000D01*
G01*
X154250000Y-54975000D01*
G75*
G02*
X154075000Y-55150000I-175000J0D01*
G01*
G37*
G36*
G01*
X154075000Y-45650000D02*
X153725000Y-45650000D01*
G75*
G02*
X153550000Y-45475000I0J175000D01*
G01*
X153550000Y-44025000D01*
G75*
G02*
X153725000Y-43850000I175000J0D01*
G01*
X154075000Y-43850000D01*
G75*
G02*
X154250000Y-44025000I0J-175000D01*
G01*
X154250000Y-45475000D01*
G75*
G02*
X154075000Y-45650000I-175000J0D01*
G01*
G37*
G36*
G01*
X153000000Y-45650000D02*
X152600000Y-45650000D01*
G75*
G02*
X152400000Y-45450000I0J200000D01*
G01*
X152400000Y-44050000D01*
G75*
G02*
X152600000Y-43850000I200000J0D01*
G01*
X153000000Y-43850000D01*
G75*
G02*
X153200000Y-44050000I0J-200000D01*
G01*
X153200000Y-45450000D01*
G75*
G02*
X153000000Y-45650000I-200000J0D01*
G01*
G37*
G36*
G01*
X151900000Y-45650000D02*
X151500000Y-45650000D01*
G75*
G02*
X151300000Y-45450000I0J200000D01*
G01*
X151300000Y-44050000D01*
G75*
G02*
X151500000Y-43850000I200000J0D01*
G01*
X151900000Y-43850000D01*
G75*
G02*
X152100000Y-44050000I0J-200000D01*
G01*
X152100000Y-45450000D01*
G75*
G02*
X151900000Y-45650000I-200000J0D01*
G01*
G37*
G36*
G01*
X150800000Y-45650000D02*
X150400000Y-45650000D01*
G75*
G02*
X150200000Y-45450000I0J200000D01*
G01*
X150200000Y-44050000D01*
G75*
G02*
X150400000Y-43850000I200000J0D01*
G01*
X150800000Y-43850000D01*
G75*
G02*
X151000000Y-44050000I0J-200000D01*
G01*
X151000000Y-45450000D01*
G75*
G02*
X150800000Y-45650000I-200000J0D01*
G01*
G37*
G36*
G01*
X149700000Y-45650000D02*
X149300000Y-45650000D01*
G75*
G02*
X149100000Y-45450000I0J200000D01*
G01*
X149100000Y-44050000D01*
G75*
G02*
X149300000Y-43850000I200000J0D01*
G01*
X149700000Y-43850000D01*
G75*
G02*
X149900000Y-44050000I0J-200000D01*
G01*
X149900000Y-45450000D01*
G75*
G02*
X149700000Y-45650000I-200000J0D01*
G01*
G37*
G36*
G01*
X148600000Y-45650000D02*
X148200000Y-45650000D01*
G75*
G02*
X148000000Y-45450000I0J200000D01*
G01*
X148000000Y-44050000D01*
G75*
G02*
X148200000Y-43850000I200000J0D01*
G01*
X148600000Y-43850000D01*
G75*
G02*
X148800000Y-44050000I0J-200000D01*
G01*
X148800000Y-45450000D01*
G75*
G02*
X148600000Y-45650000I-200000J0D01*
G01*
G37*
G36*
G01*
X147500000Y-45650000D02*
X147100000Y-45650000D01*
G75*
G02*
X146900000Y-45450000I0J200000D01*
G01*
X146900000Y-44050000D01*
G75*
G02*
X147100000Y-43850000I200000J0D01*
G01*
X147500000Y-43850000D01*
G75*
G02*
X147700000Y-44050000I0J-200000D01*
G01*
X147700000Y-45450000D01*
G75*
G02*
X147500000Y-45650000I-200000J0D01*
G01*
G37*
G36*
G01*
X146400000Y-45650000D02*
X146000000Y-45650000D01*
G75*
G02*
X145800000Y-45450000I0J200000D01*
G01*
X145800000Y-44050000D01*
G75*
G02*
X146000000Y-43850000I200000J0D01*
G01*
X146400000Y-43850000D01*
G75*
G02*
X146600000Y-44050000I0J-200000D01*
G01*
X146600000Y-45450000D01*
G75*
G02*
X146400000Y-45650000I-200000J0D01*
G01*
G37*
G36*
G01*
X145275000Y-45650000D02*
X144925000Y-45650000D01*
G75*
G02*
X144750000Y-45475000I0J175000D01*
G01*
X144750000Y-44025000D01*
G75*
G02*
X144925000Y-43850000I175000J0D01*
G01*
X145275000Y-43850000D01*
G75*
G02*
X145450000Y-44025000I0J-175000D01*
G01*
X145450000Y-45475000D01*
G75*
G02*
X145275000Y-45650000I-175000J0D01*
G01*
G37*
D37*
X98025000Y-104475000D03*
D38*
X90425000Y-104475000D03*
D39*
X150500000Y-36500000D03*
X153040000Y-39040000D03*
X153040000Y-33960000D03*
X147960000Y-33960000D03*
X147960000Y-39040000D03*
M02*
