M48
; DRILL file {KiCad (5.1.9)-1} date 01/03/22 11:24:45
; FORMAT={3:3/ absolute / metric / suppress leading zeros}
; #@! TF.CreationDate,2022-01-03T11:24:45+01:00
; #@! TF.GenerationSoftware,Kicad,Pcbnew,(5.1.9)-1
FMAT,2
METRIC,TZ
T1C0.400
T2C0.550
T3C0.600
T4C0.800
T5C0.850
T6C1.000
T7C1.200
T8C1.300
T9C4.300
T10C0.800
T11C1.152
%
G90
G05
T1
X75000Y-95000
X75000Y-100000
X75000Y-105000
X75000Y-110000
X75000Y-115000
X80000Y-90000
X80000Y-95000
X80000Y-100000
X80000Y-105000
X80000Y-110000
X85000Y-85000
X85000Y-90000
X85000Y-95000
X85000Y-100000
X85000Y-105000
X85000Y-110000
X85000Y-115000
X85000Y-125000
X90000Y-55000
X90000Y-85000
X90000Y-110000
X90000Y-115000
X90000Y-125000
X95000Y-85000
X95000Y-115000
X95000Y-120000
X95000Y-125000
X100000Y-85000
X100000Y-110000
X100000Y-115000
X100000Y-120000
X100000Y-125000
X105000Y-90000
X105000Y-95000
X105000Y-110000
X105000Y-120000
X115000Y-45000
X117500Y-45000
X120000Y-42500
X122500Y-42500
X142500Y-45000
X142500Y-50000
X145000Y-37500
X145000Y-42500
X145000Y-92500
X150000Y-97500
X150000Y-102500
X155000Y-35000
X155000Y-37500
X155000Y-97500
X155000Y-102500
X155000Y-107500
X155000Y-112500
X160000Y-50000
X160000Y-60000
X160000Y-80000
X160000Y-85000
X160000Y-97500
X160000Y-102500
X160000Y-107500
X165000Y-45000
X165000Y-50000
X165000Y-80000
X165000Y-85000
X165000Y-102500
X165000Y-107500
X165000Y-112500
T3
X76775Y-120000
X77275Y-40000
X77720Y-117720
X77720Y-122280
X78220Y-37720
X78220Y-42280
X80000Y-116775
X80000Y-123225
X80500Y-36775
X80500Y-43225
X82280Y-117720
X82280Y-122280
X82780Y-37720
X82780Y-42280
X83225Y-120000
X83725Y-40000
X114775Y-120000
X115720Y-117720
X115720Y-122280
X118000Y-116775
X118000Y-123225
X120280Y-117720
X120280Y-122280
X121225Y-120000
X138775Y-120000
X139720Y-117720
X139720Y-122280
X142000Y-116775
X142000Y-123225
X144280Y-117720
X144280Y-122280
X145225Y-120000
X156775Y-40000
X156775Y-120000
X157720Y-37720
X157720Y-42280
X157720Y-117720
X157720Y-122280
X160000Y-36775
X160000Y-43225
X160000Y-116775
X160000Y-123225
X162280Y-37720
X162280Y-42280
X162280Y-117720
X162280Y-122280
X163225Y-40000
X163225Y-120000
T4
X87000Y-39000
X87490Y-56440
X90750Y-69500
X90750Y-71250
X92500Y-80000
X94250Y-69500
X94250Y-71250
X94500Y-77500
X95500Y-39000
X97400Y-90000
X104600Y-102125
X112250Y-60000
X112250Y-67000
X112250Y-70000
X112250Y-82000
X112500Y-51740
X114000Y-48000
X114000Y-95000
X116500Y-79500
X117000Y-81000
X117000Y-94500
X118000Y-48000
X118000Y-65000
X118000Y-68500
X118250Y-58590
X119600Y-63670
X119600Y-68390
X121000Y-63000
X121440Y-65600
X121500Y-54370
X122260Y-64010
X122500Y-50000
X123500Y-75500
X124000Y-86500
X124025Y-73375
X124425Y-61225
X125000Y-50000
X125230Y-46930
X125275Y-62300
X125500Y-113540
X125825Y-63500
X125890Y-87630
X126480Y-40800
X126500Y-64950
X127160Y-65953
X128264Y-67264
X128425Y-48500
X129000Y-89380
X129000Y-97000
X129480Y-47794
X129710Y-40310
X129930Y-80000
X131400Y-45600
X131540Y-89380
X131540Y-97000
X132270Y-69680
X132500Y-50430
X132500Y-51875
X133275Y-40875
X134750Y-52675
X134750Y-54600
X135000Y-70000
X135470Y-38030
X135500Y-39600
X136400Y-60675
X136690Y-51760
X138500Y-77000
X138500Y-79000
X138930Y-51000
X139875Y-74050
X140250Y-71500
X140990Y-39600
X141875Y-52375
X142000Y-85500
X142020Y-81530
X144500Y-89500
X144690Y-61090
X146680Y-64550
X148310Y-84010
X148330Y-64550
X149830Y-80550
X149980Y-64550
X152620Y-77750
X153180Y-91090
X155430Y-95580
X155450Y-86930
X156330Y-56460
X158950Y-63300
X159125Y-71500
X159525Y-74050
X161500Y-69000
X161500Y-76500
T6
X74975Y-87950
X74975Y-90490
X75000Y-67000
X75000Y-69540
X87420Y-35000
X89960Y-35000
X90425Y-104475
X92500Y-35000
X98025Y-104475
X137000Y-35000
X139540Y-35000
X162500Y-55840
X162500Y-58380
X162500Y-60920
X162500Y-63460
X162500Y-66000
X165000Y-71500
X165000Y-74040
X165040Y-55840
X165040Y-58380
X165040Y-60920
X165040Y-63460
X165040Y-66000
T7
X75000Y-77000
X75000Y-80500
X128500Y-125000
X132000Y-125000
X165000Y-89500
X165000Y-93000
T8
X75500Y-49000
X75500Y-54000
X75500Y-59000
T9
X80000Y-120000
X80500Y-40000
X118000Y-120000
X142000Y-120000
X160000Y-40000
X160000Y-120000
T10
X123500Y-36800
X128500Y-36800
T11
X86500Y-45500
X88500Y-120000
X160000Y-112000
T2
G00X122125Y-34375
M15
G01X122125Y-33725
M16
G05
G00X129875Y-34375
M15
G01X129875Y-33725
M16
G05
T5
G00X122275Y-38125
M15
G01X122275Y-37575
M16
G05
G00X129725Y-38125
M15
G01X129725Y-37575
M16
G05
T0
M30
